<mxfile host="www.draw.io" modified="2020-03-23T14:46:09.845Z" agent="Mozilla/5.0 (Macintosh; Intel Mac OS X 10_15_1) AppleWebKit/537.36 (KHTML, like Gecko) Chrome/80.0.3987.132 Safari/537.36" etag="lA5XEeNjlrLhAw_U4j3U" version="12.8.6" type="github" pages="26">
  <diagram id="cpesi-2cl9PMHLiWMdVF" name="02 - disclaimer">
    <mxGraphModel dx="626" dy="308" grid="1" gridSize="10" guides="1" tooltips="1" connect="1" arrows="1" fold="1" page="1" pageScale="1" pageWidth="1920" pageHeight="1200" math="0" shadow="0">
      <root>
        <mxCell id="iyuQr_05ihZRbdnl_HAH-0" />
        <mxCell id="iyuQr_05ihZRbdnl_HAH-1" parent="iyuQr_05ihZRbdnl_HAH-0" />
        <mxCell id="iyuQr_05ihZRbdnl_HAH-2" value="Few Notes" style="text;html=1;strokeColor=none;fillColor=none;align=center;verticalAlign=middle;whiteSpace=wrap;rounded=0;fontSize=28;fontStyle=1" vertex="1" parent="iyuQr_05ihZRbdnl_HAH-1">
          <mxGeometry x="660" y="96" width="210" height="30" as="geometry" />
        </mxCell>
        <mxCell id="iyuQr_05ihZRbdnl_HAH-4" value="Goal #1 - Get a &lt;i style=&quot;font-size: 18px;&quot;&gt;taste&lt;/i&gt; of a microservices architecture" style="rounded=0;whiteSpace=wrap;html=1;fontSize=18;align=center;fillColor=#dae8fc;strokeColor=#6c8ebf;shadow=1;" vertex="1" parent="iyuQr_05ihZRbdnl_HAH-1">
          <mxGeometry x="520" y="130" width="490" height="60" as="geometry" />
        </mxCell>
        <mxCell id="iyuQr_05ihZRbdnl_HAH-5" value="Goal #2 - Build as much as possible from scratch" style="rounded=0;whiteSpace=wrap;html=1;fontSize=18;align=center;fillColor=#dae8fc;strokeColor=#6c8ebf;shadow=1;" vertex="1" parent="iyuQr_05ihZRbdnl_HAH-1">
          <mxGeometry x="520" y="200" width="490" height="60" as="geometry" />
        </mxCell>
        <mxCell id="kvJM5hAZ0lfLLkKw4oHE-0" value="Do not use this project as a template for future microservices stuff (we will build a better template later)" style="rounded=0;whiteSpace=wrap;html=1;fontSize=18;align=center;fillColor=#f8cecc;strokeColor=#b85450;shadow=1;" vertex="1" parent="iyuQr_05ihZRbdnl_HAH-1">
          <mxGeometry x="520" y="310" width="490" height="60" as="geometry" />
        </mxCell>
      </root>
    </mxGraphModel>
  </diagram>
  <diagram id="99ZDeaYZXDU0Qbmv9xaT" name="01 - mockup">
    <mxGraphModel dx="1001" dy="493" grid="1" gridSize="10" guides="1" tooltips="1" connect="1" arrows="1" fold="1" page="1" pageScale="1" pageWidth="1920" pageHeight="1200" math="0" shadow="0">
      <root>
        <mxCell id="0" />
        <mxCell id="1" parent="0" />
        <mxCell id="adwG-QhJT13sP28Hk7h6-1" value="" style="strokeWidth=1;shadow=0;dashed=0;align=center;html=1;shape=mxgraph.mockup.containers.browserWindow;rSize=0;strokeColor=#666666;strokeColor2=#008cff;strokeColor3=#c4c4c4;mainText=,;recursiveResize=0;" vertex="1" parent="1">
          <mxGeometry x="330" y="160" width="440" height="430" as="geometry" />
        </mxCell>
        <mxCell id="adwG-QhJT13sP28Hk7h6-2" value="Page 1" style="strokeWidth=1;shadow=0;dashed=0;align=center;html=1;shape=mxgraph.mockup.containers.anchor;fontSize=17;fontColor=#666666;align=left;" vertex="1" parent="adwG-QhJT13sP28Hk7h6-1">
          <mxGeometry x="60" y="12" width="110" height="26" as="geometry" />
        </mxCell>
        <mxCell id="adwG-QhJT13sP28Hk7h6-3" value="https://www.draw.io" style="strokeWidth=1;shadow=0;dashed=0;align=center;html=1;shape=mxgraph.mockup.containers.anchor;rSize=0;fontSize=17;fontColor=#666666;align=left;" vertex="1" parent="adwG-QhJT13sP28Hk7h6-1">
          <mxGeometry x="130" y="60" width="250" height="26" as="geometry" />
        </mxCell>
        <mxCell id="adwG-QhJT13sP28Hk7h6-16" value="Create Post" style="text;html=1;strokeColor=none;fillColor=none;align=left;verticalAlign=middle;whiteSpace=wrap;rounded=0;fontSize=28;" vertex="1" parent="adwG-QhJT13sP28Hk7h6-1">
          <mxGeometry x="15" y="120" width="200" height="20" as="geometry" />
        </mxCell>
        <mxCell id="adwG-QhJT13sP28Hk7h6-17" value="My POST" style="whiteSpace=wrap;html=1;fontSize=28;align=left;" vertex="1" parent="adwG-QhJT13sP28Hk7h6-1">
          <mxGeometry x="35" y="175" width="180" height="25" as="geometry" />
        </mxCell>
        <mxCell id="adwG-QhJT13sP28Hk7h6-18" value="Submit" style="whiteSpace=wrap;html=1;fontSize=16;align=center;rounded=1;" vertex="1" parent="adwG-QhJT13sP28Hk7h6-1">
          <mxGeometry x="35" y="210" width="80" height="25" as="geometry" />
        </mxCell>
        <mxCell id="adwG-QhJT13sP28Hk7h6-19" value="Title" style="text;html=1;strokeColor=none;fillColor=none;align=left;verticalAlign=middle;whiteSpace=wrap;rounded=0;fontSize=18;" vertex="1" parent="adwG-QhJT13sP28Hk7h6-1">
          <mxGeometry x="35" y="150" width="200" height="20" as="geometry" />
        </mxCell>
        <mxCell id="adwG-QhJT13sP28Hk7h6-8" value="" style="strokeWidth=1;shadow=0;dashed=0;align=center;html=1;shape=mxgraph.mockup.containers.browserWindow;rSize=0;strokeColor=#666666;strokeColor2=#008cff;strokeColor3=#c4c4c4;mainText=,;recursiveResize=0;" vertex="1" parent="1">
          <mxGeometry x="950" y="160" width="480" height="430" as="geometry" />
        </mxCell>
        <mxCell id="adwG-QhJT13sP28Hk7h6-9" value="Page 1" style="strokeWidth=1;shadow=0;dashed=0;align=center;html=1;shape=mxgraph.mockup.containers.anchor;fontSize=17;fontColor=#666666;align=left;" vertex="1" parent="adwG-QhJT13sP28Hk7h6-8">
          <mxGeometry x="60" y="12" width="110" height="26" as="geometry" />
        </mxCell>
        <mxCell id="adwG-QhJT13sP28Hk7h6-10" value="https://www.draw.io" style="strokeWidth=1;shadow=0;dashed=0;align=center;html=1;shape=mxgraph.mockup.containers.anchor;rSize=0;fontSize=17;fontColor=#666666;align=left;" vertex="1" parent="adwG-QhJT13sP28Hk7h6-8">
          <mxGeometry x="130" y="60" width="250" height="26" as="geometry" />
        </mxCell>
        <mxCell id="adwG-QhJT13sP28Hk7h6-11" value="Create Post" style="text;html=1;strokeColor=none;fillColor=none;align=left;verticalAlign=middle;whiteSpace=wrap;rounded=0;fontSize=28;" vertex="1" parent="adwG-QhJT13sP28Hk7h6-8">
          <mxGeometry x="20" y="120" width="200" height="20" as="geometry" />
        </mxCell>
        <mxCell id="adwG-QhJT13sP28Hk7h6-12" value="" style="whiteSpace=wrap;html=1;fontSize=28;align=left;" vertex="1" parent="adwG-QhJT13sP28Hk7h6-8">
          <mxGeometry x="40" y="175" width="180" height="25" as="geometry" />
        </mxCell>
        <mxCell id="adwG-QhJT13sP28Hk7h6-13" value="Title" style="text;html=1;strokeColor=none;fillColor=none;align=left;verticalAlign=middle;whiteSpace=wrap;rounded=0;fontSize=18;" vertex="1" parent="adwG-QhJT13sP28Hk7h6-8">
          <mxGeometry x="40" y="150" width="200" height="20" as="geometry" />
        </mxCell>
        <mxCell id="adwG-QhJT13sP28Hk7h6-14" value="Submit" style="whiteSpace=wrap;html=1;fontSize=16;align=center;rounded=1;" vertex="1" parent="adwG-QhJT13sP28Hk7h6-8">
          <mxGeometry x="40" y="210" width="80" height="25" as="geometry" />
        </mxCell>
        <mxCell id="adwG-QhJT13sP28Hk7h6-20" value="" style="endArrow=none;html=1;fontSize=16;" edge="1" parent="adwG-QhJT13sP28Hk7h6-8">
          <mxGeometry width="50" height="50" relative="1" as="geometry">
            <mxPoint x="20" y="250" as="sourcePoint" />
            <mxPoint x="440" y="250" as="targetPoint" />
          </mxGeometry>
        </mxCell>
        <mxCell id="adwG-QhJT13sP28Hk7h6-21" value="" style="rounded=0;whiteSpace=wrap;html=1;fontSize=16;align=center;fillColor=#dae8fc;strokeColor=#6c8ebf;" vertex="1" parent="adwG-QhJT13sP28Hk7h6-8">
          <mxGeometry x="25" y="260" width="215" height="160" as="geometry" />
        </mxCell>
        <mxCell id="adwG-QhJT13sP28Hk7h6-22" value="My Post" style="text;html=1;strokeColor=none;fillColor=none;align=left;verticalAlign=middle;whiteSpace=wrap;rounded=0;fontSize=28;" vertex="1" parent="adwG-QhJT13sP28Hk7h6-8">
          <mxGeometry x="30" y="270" width="200" height="20" as="geometry" />
        </mxCell>
        <mxCell id="adwG-QhJT13sP28Hk7h6-23" value="&lt;i&gt;0 comments&lt;/i&gt;" style="text;html=1;strokeColor=none;fillColor=none;align=center;verticalAlign=middle;whiteSpace=wrap;rounded=0;fontSize=16;" vertex="1" parent="adwG-QhJT13sP28Hk7h6-8">
          <mxGeometry x="30" y="300" width="100" height="20" as="geometry" />
        </mxCell>
        <mxCell id="adwG-QhJT13sP28Hk7h6-28" value="Im a comment" style="whiteSpace=wrap;html=1;fontSize=28;align=left;" vertex="1" parent="adwG-QhJT13sP28Hk7h6-8">
          <mxGeometry x="40" y="361" width="180" height="25" as="geometry" />
        </mxCell>
        <mxCell id="adwG-QhJT13sP28Hk7h6-29" value="Comment" style="text;html=1;strokeColor=none;fillColor=none;align=left;verticalAlign=middle;whiteSpace=wrap;rounded=0;fontSize=15;" vertex="1" parent="adwG-QhJT13sP28Hk7h6-8">
          <mxGeometry x="40" y="342" width="200" height="20" as="geometry" />
        </mxCell>
        <mxCell id="adwG-QhJT13sP28Hk7h6-30" value="Submit" style="whiteSpace=wrap;html=1;fontSize=16;align=center;rounded=1;" vertex="1" parent="adwG-QhJT13sP28Hk7h6-8">
          <mxGeometry x="40" y="390" width="80" height="25" as="geometry" />
        </mxCell>
        <mxCell id="adwG-QhJT13sP28Hk7h6-31" value="" style="strokeWidth=1;shadow=0;dashed=0;align=center;html=1;shape=mxgraph.mockup.containers.browserWindow;rSize=0;strokeColor=#666666;strokeColor2=#008cff;strokeColor3=#c4c4c4;mainText=,;recursiveResize=0;" vertex="1" parent="1">
          <mxGeometry x="1490" y="160" width="480" height="430" as="geometry" />
        </mxCell>
        <mxCell id="adwG-QhJT13sP28Hk7h6-32" value="Page 1" style="strokeWidth=1;shadow=0;dashed=0;align=center;html=1;shape=mxgraph.mockup.containers.anchor;fontSize=17;fontColor=#666666;align=left;" vertex="1" parent="adwG-QhJT13sP28Hk7h6-31">
          <mxGeometry x="60" y="12" width="110" height="26" as="geometry" />
        </mxCell>
        <mxCell id="adwG-QhJT13sP28Hk7h6-33" value="https://www.draw.io" style="strokeWidth=1;shadow=0;dashed=0;align=center;html=1;shape=mxgraph.mockup.containers.anchor;rSize=0;fontSize=17;fontColor=#666666;align=left;" vertex="1" parent="adwG-QhJT13sP28Hk7h6-31">
          <mxGeometry x="130" y="60" width="250" height="26" as="geometry" />
        </mxCell>
        <mxCell id="adwG-QhJT13sP28Hk7h6-34" value="Create Post" style="text;html=1;strokeColor=none;fillColor=none;align=left;verticalAlign=middle;whiteSpace=wrap;rounded=0;fontSize=28;" vertex="1" parent="adwG-QhJT13sP28Hk7h6-31">
          <mxGeometry x="20" y="120" width="200" height="20" as="geometry" />
        </mxCell>
        <mxCell id="adwG-QhJT13sP28Hk7h6-35" value="" style="whiteSpace=wrap;html=1;fontSize=28;align=left;" vertex="1" parent="adwG-QhJT13sP28Hk7h6-31">
          <mxGeometry x="40" y="175" width="180" height="25" as="geometry" />
        </mxCell>
        <mxCell id="adwG-QhJT13sP28Hk7h6-36" value="Title" style="text;html=1;strokeColor=none;fillColor=none;align=left;verticalAlign=middle;whiteSpace=wrap;rounded=0;fontSize=18;" vertex="1" parent="adwG-QhJT13sP28Hk7h6-31">
          <mxGeometry x="40" y="150" width="200" height="20" as="geometry" />
        </mxCell>
        <mxCell id="adwG-QhJT13sP28Hk7h6-37" value="Submit" style="whiteSpace=wrap;html=1;fontSize=16;align=center;rounded=1;" vertex="1" parent="adwG-QhJT13sP28Hk7h6-31">
          <mxGeometry x="40" y="210" width="80" height="25" as="geometry" />
        </mxCell>
        <mxCell id="adwG-QhJT13sP28Hk7h6-38" value="" style="endArrow=none;html=1;fontSize=16;" edge="1" parent="adwG-QhJT13sP28Hk7h6-31">
          <mxGeometry width="50" height="50" relative="1" as="geometry">
            <mxPoint x="20" y="240" as="sourcePoint" />
            <mxPoint x="440" y="240" as="targetPoint" />
          </mxGeometry>
        </mxCell>
        <mxCell id="adwG-QhJT13sP28Hk7h6-39" value="" style="rounded=0;whiteSpace=wrap;html=1;fontSize=16;align=center;fillColor=#dae8fc;strokeColor=#6c8ebf;" vertex="1" parent="adwG-QhJT13sP28Hk7h6-31">
          <mxGeometry x="25" y="250" width="215" height="170" as="geometry" />
        </mxCell>
        <mxCell id="adwG-QhJT13sP28Hk7h6-40" value="My Post" style="text;html=1;strokeColor=none;fillColor=none;align=left;verticalAlign=middle;whiteSpace=wrap;rounded=0;fontSize=28;" vertex="1" parent="adwG-QhJT13sP28Hk7h6-31">
          <mxGeometry x="30" y="260" width="200" height="20" as="geometry" />
        </mxCell>
        <mxCell id="adwG-QhJT13sP28Hk7h6-41" value="&lt;i&gt;1 comments&lt;/i&gt;" style="text;html=1;strokeColor=none;fillColor=none;align=center;verticalAlign=middle;whiteSpace=wrap;rounded=0;fontSize=16;" vertex="1" parent="adwG-QhJT13sP28Hk7h6-31">
          <mxGeometry x="30" y="285" width="100" height="20" as="geometry" />
        </mxCell>
        <mxCell id="adwG-QhJT13sP28Hk7h6-46" value="&lt;ul&gt;&lt;li&gt;Im a comment!&lt;/li&gt;&lt;/ul&gt;" style="text;html=1;strokeColor=none;fillColor=none;align=left;verticalAlign=middle;whiteSpace=wrap;rounded=0;fontSize=18;" vertex="1" parent="adwG-QhJT13sP28Hk7h6-31">
          <mxGeometry x="40" y="310" width="200" height="20" as="geometry" />
        </mxCell>
        <mxCell id="adwG-QhJT13sP28Hk7h6-47" value="" style="whiteSpace=wrap;html=1;fontSize=28;align=left;" vertex="1" parent="adwG-QhJT13sP28Hk7h6-31">
          <mxGeometry x="32.5" y="359" width="180" height="25" as="geometry" />
        </mxCell>
        <mxCell id="adwG-QhJT13sP28Hk7h6-48" value="Comment" style="text;html=1;strokeColor=none;fillColor=none;align=left;verticalAlign=middle;whiteSpace=wrap;rounded=0;fontSize=15;" vertex="1" parent="adwG-QhJT13sP28Hk7h6-31">
          <mxGeometry x="32.5" y="340" width="200" height="20" as="geometry" />
        </mxCell>
        <mxCell id="adwG-QhJT13sP28Hk7h6-49" value="Submit" style="whiteSpace=wrap;html=1;fontSize=16;align=center;rounded=1;" vertex="1" parent="adwG-QhJT13sP28Hk7h6-31">
          <mxGeometry x="32.5" y="388" width="80" height="25" as="geometry" />
        </mxCell>
        <mxCell id="adwG-QhJT13sP28Hk7h6-50" value="" style="strokeWidth=1;shadow=0;dashed=0;align=center;html=1;shape=mxgraph.mockup.containers.browserWindow;rSize=0;strokeColor=#666666;strokeColor2=#008cff;strokeColor3=#c4c4c4;mainText=,;recursiveResize=0;" vertex="1" parent="1">
          <mxGeometry x="2010" y="160" width="480" height="430" as="geometry" />
        </mxCell>
        <mxCell id="adwG-QhJT13sP28Hk7h6-51" value="Page 1" style="strokeWidth=1;shadow=0;dashed=0;align=center;html=1;shape=mxgraph.mockup.containers.anchor;fontSize=17;fontColor=#666666;align=left;" vertex="1" parent="adwG-QhJT13sP28Hk7h6-50">
          <mxGeometry x="60" y="12" width="110" height="26" as="geometry" />
        </mxCell>
        <mxCell id="adwG-QhJT13sP28Hk7h6-52" value="https://www.draw.io" style="strokeWidth=1;shadow=0;dashed=0;align=center;html=1;shape=mxgraph.mockup.containers.anchor;rSize=0;fontSize=17;fontColor=#666666;align=left;" vertex="1" parent="adwG-QhJT13sP28Hk7h6-50">
          <mxGeometry x="130" y="60" width="250" height="26" as="geometry" />
        </mxCell>
        <mxCell id="adwG-QhJT13sP28Hk7h6-53" value="Create Post" style="text;html=1;strokeColor=none;fillColor=none;align=left;verticalAlign=middle;whiteSpace=wrap;rounded=0;fontSize=28;" vertex="1" parent="adwG-QhJT13sP28Hk7h6-50">
          <mxGeometry x="20" y="120" width="200" height="20" as="geometry" />
        </mxCell>
        <mxCell id="adwG-QhJT13sP28Hk7h6-54" value="" style="whiteSpace=wrap;html=1;fontSize=28;align=left;" vertex="1" parent="adwG-QhJT13sP28Hk7h6-50">
          <mxGeometry x="40" y="175" width="180" height="25" as="geometry" />
        </mxCell>
        <mxCell id="adwG-QhJT13sP28Hk7h6-55" value="Title" style="text;html=1;strokeColor=none;fillColor=none;align=left;verticalAlign=middle;whiteSpace=wrap;rounded=0;fontSize=18;" vertex="1" parent="adwG-QhJT13sP28Hk7h6-50">
          <mxGeometry x="40" y="150" width="200" height="20" as="geometry" />
        </mxCell>
        <mxCell id="adwG-QhJT13sP28Hk7h6-56" value="Submit" style="whiteSpace=wrap;html=1;fontSize=16;align=center;rounded=1;" vertex="1" parent="adwG-QhJT13sP28Hk7h6-50">
          <mxGeometry x="40" y="210" width="80" height="25" as="geometry" />
        </mxCell>
        <mxCell id="adwG-QhJT13sP28Hk7h6-57" value="" style="endArrow=none;html=1;fontSize=16;" edge="1" parent="adwG-QhJT13sP28Hk7h6-50">
          <mxGeometry width="50" height="50" relative="1" as="geometry">
            <mxPoint x="20" y="240" as="sourcePoint" />
            <mxPoint x="440" y="240" as="targetPoint" />
          </mxGeometry>
        </mxCell>
        <mxCell id="adwG-QhJT13sP28Hk7h6-58" value="" style="rounded=0;whiteSpace=wrap;html=1;fontSize=16;align=center;fillColor=#dae8fc;strokeColor=#6c8ebf;" vertex="1" parent="adwG-QhJT13sP28Hk7h6-50">
          <mxGeometry x="25" y="250" width="215" height="170" as="geometry" />
        </mxCell>
        <mxCell id="adwG-QhJT13sP28Hk7h6-59" value="My Post" style="text;html=1;strokeColor=none;fillColor=none;align=left;verticalAlign=middle;whiteSpace=wrap;rounded=0;fontSize=28;" vertex="1" parent="adwG-QhJT13sP28Hk7h6-50">
          <mxGeometry x="30" y="260" width="200" height="20" as="geometry" />
        </mxCell>
        <mxCell id="adwG-QhJT13sP28Hk7h6-60" value="&lt;i&gt;1 comments&lt;/i&gt;" style="text;html=1;strokeColor=none;fillColor=none;align=center;verticalAlign=middle;whiteSpace=wrap;rounded=0;fontSize=16;" vertex="1" parent="adwG-QhJT13sP28Hk7h6-50">
          <mxGeometry x="30" y="285" width="100" height="20" as="geometry" />
        </mxCell>
        <mxCell id="adwG-QhJT13sP28Hk7h6-61" value="&lt;ul&gt;&lt;li&gt;Im a comment!&lt;/li&gt;&lt;/ul&gt;" style="text;html=1;strokeColor=none;fillColor=none;align=left;verticalAlign=middle;whiteSpace=wrap;rounded=0;fontSize=18;" vertex="1" parent="adwG-QhJT13sP28Hk7h6-50">
          <mxGeometry x="40" y="310" width="200" height="20" as="geometry" />
        </mxCell>
        <mxCell id="adwG-QhJT13sP28Hk7h6-62" value="" style="whiteSpace=wrap;html=1;fontSize=28;align=left;" vertex="1" parent="adwG-QhJT13sP28Hk7h6-50">
          <mxGeometry x="32.5" y="359" width="180" height="25" as="geometry" />
        </mxCell>
        <mxCell id="adwG-QhJT13sP28Hk7h6-63" value="Comment" style="text;html=1;strokeColor=none;fillColor=none;align=left;verticalAlign=middle;whiteSpace=wrap;rounded=0;fontSize=15;" vertex="1" parent="adwG-QhJT13sP28Hk7h6-50">
          <mxGeometry x="32.5" y="340" width="200" height="20" as="geometry" />
        </mxCell>
        <mxCell id="adwG-QhJT13sP28Hk7h6-64" value="Submit" style="whiteSpace=wrap;html=1;fontSize=16;align=center;rounded=1;" vertex="1" parent="adwG-QhJT13sP28Hk7h6-50">
          <mxGeometry x="32.5" y="388" width="80" height="25" as="geometry" />
        </mxCell>
        <mxCell id="adwG-QhJT13sP28Hk7h6-65" value="" style="rounded=0;whiteSpace=wrap;html=1;fontSize=16;align=center;fillColor=#dae8fc;strokeColor=#6c8ebf;" vertex="1" parent="adwG-QhJT13sP28Hk7h6-50">
          <mxGeometry x="250" y="250" width="215" height="170" as="geometry" />
        </mxCell>
        <mxCell id="adwG-QhJT13sP28Hk7h6-66" value="Post #2" style="text;html=1;strokeColor=none;fillColor=none;align=left;verticalAlign=middle;whiteSpace=wrap;rounded=0;fontSize=28;" vertex="1" parent="adwG-QhJT13sP28Hk7h6-50">
          <mxGeometry x="255" y="260" width="200" height="20" as="geometry" />
        </mxCell>
        <mxCell id="adwG-QhJT13sP28Hk7h6-67" value="&lt;i&gt;1 comments&lt;/i&gt;" style="text;html=1;strokeColor=none;fillColor=none;align=center;verticalAlign=middle;whiteSpace=wrap;rounded=0;fontSize=16;" vertex="1" parent="adwG-QhJT13sP28Hk7h6-50">
          <mxGeometry x="255" y="285" width="100" height="20" as="geometry" />
        </mxCell>
        <mxCell id="adwG-QhJT13sP28Hk7h6-68" value="&lt;ul&gt;&lt;li&gt;Im a comment!&lt;/li&gt;&lt;/ul&gt;" style="text;html=1;strokeColor=none;fillColor=none;align=left;verticalAlign=middle;whiteSpace=wrap;rounded=0;fontSize=18;" vertex="1" parent="adwG-QhJT13sP28Hk7h6-50">
          <mxGeometry x="265" y="310" width="200" height="20" as="geometry" />
        </mxCell>
        <mxCell id="adwG-QhJT13sP28Hk7h6-69" value="" style="whiteSpace=wrap;html=1;fontSize=28;align=left;" vertex="1" parent="adwG-QhJT13sP28Hk7h6-50">
          <mxGeometry x="257.5" y="359" width="180" height="25" as="geometry" />
        </mxCell>
        <mxCell id="adwG-QhJT13sP28Hk7h6-70" value="Comment" style="text;html=1;strokeColor=none;fillColor=none;align=left;verticalAlign=middle;whiteSpace=wrap;rounded=0;fontSize=15;" vertex="1" parent="adwG-QhJT13sP28Hk7h6-50">
          <mxGeometry x="257.5" y="340" width="200" height="20" as="geometry" />
        </mxCell>
        <mxCell id="adwG-QhJT13sP28Hk7h6-71" value="Submit" style="whiteSpace=wrap;html=1;fontSize=16;align=center;rounded=1;" vertex="1" parent="adwG-QhJT13sP28Hk7h6-50">
          <mxGeometry x="257.5" y="388" width="80" height="25" as="geometry" />
        </mxCell>
      </root>
    </mxGraphModel>
  </diagram>
  <diagram id="Sla0MyDP4kXtcwXa5FFh" name="03 - design">
    <mxGraphModel dx="626" dy="308" grid="1" gridSize="10" guides="1" tooltips="1" connect="1" arrows="1" fold="1" page="1" pageScale="1" pageWidth="1920" pageHeight="1200" math="0" shadow="0">
      <root>
        <mxCell id="MPRrhoq_KwCkbzCw6KRM-0" />
        <mxCell id="MPRrhoq_KwCkbzCw6KRM-1" parent="MPRrhoq_KwCkbzCw6KRM-0" />
        <mxCell id="z3aX3XDlzaNawdsdwkMU-2" style="edgeStyle=orthogonalEdgeStyle;rounded=0;orthogonalLoop=1;jettySize=auto;html=1;exitX=0.5;exitY=1;exitDx=0;exitDy=0;fontSize=25;" edge="1" parent="MPRrhoq_KwCkbzCw6KRM-1" source="z3aX3XDlzaNawdsdwkMU-1">
          <mxGeometry relative="1" as="geometry">
            <mxPoint x="780" y="320" as="targetPoint" />
          </mxGeometry>
        </mxCell>
        <mxCell id="z3aX3XDlzaNawdsdwkMU-1" value="What services should we create?" style="whiteSpace=wrap;html=1;rounded=0;shadow=1;fontSize=25;align=center;fillColor=#dae8fc;strokeColor=#6c8ebf;fontStyle=1" vertex="1" parent="MPRrhoq_KwCkbzCw6KRM-1">
          <mxGeometry x="560" y="190" width="440" height="80" as="geometry" />
        </mxCell>
        <mxCell id="z3aX3XDlzaNawdsdwkMU-3" value="For now, we will create one separate service for each &lt;i style=&quot;font-size: 19px;&quot;&gt;resource&lt;/i&gt;&amp;nbsp;in our app" style="whiteSpace=wrap;html=1;rounded=0;shadow=1;fontSize=19;align=center;fillColor=#f5f5f5;strokeColor=#666666;fontStyle=0;fontColor=#333333;" vertex="1" parent="MPRrhoq_KwCkbzCw6KRM-1">
          <mxGeometry x="560" y="320" width="440" height="80" as="geometry" />
        </mxCell>
      </root>
    </mxGraphModel>
  </diagram>
  <diagram name="04 - design" id="WXaU1U2Sa_QuLUP8IehY">
    <mxGraphModel dx="884" dy="435" grid="1" gridSize="10" guides="1" tooltips="1" connect="1" arrows="1" fold="1" page="1" pageScale="1" pageWidth="1920" pageHeight="1200" math="0" shadow="0">
      <root>
        <mxCell id="U1OQqhAELoA_2gi_HB3H-0" />
        <mxCell id="U1OQqhAELoA_2gi_HB3H-1" parent="U1OQqhAELoA_2gi_HB3H-0" />
        <mxCell id="U1OQqhAELoA_2gi_HB3H-3" value="What services should we create?" style="whiteSpace=wrap;html=1;rounded=0;shadow=1;fontSize=25;align=center;fillColor=#dae8fc;strokeColor=#6c8ebf;fontStyle=1" vertex="1" parent="U1OQqhAELoA_2gi_HB3H-1">
          <mxGeometry x="925" y="320" width="270" height="80" as="geometry" />
        </mxCell>
        <mxCell id="XSov8CbB3q0jQ4jJmmDo-0" value="" style="strokeWidth=1;shadow=0;dashed=0;align=center;html=1;shape=mxgraph.mockup.containers.browserWindow;rSize=0;strokeColor=#666666;strokeColor2=#008cff;strokeColor3=#c4c4c4;mainText=,;recursiveResize=0;" vertex="1" parent="U1OQqhAELoA_2gi_HB3H-1">
          <mxGeometry x="360" y="300" width="480" height="430" as="geometry" />
        </mxCell>
        <mxCell id="XSov8CbB3q0jQ4jJmmDo-1" value="Page 1" style="strokeWidth=1;shadow=0;dashed=0;align=center;html=1;shape=mxgraph.mockup.containers.anchor;fontSize=17;fontColor=#666666;align=left;" vertex="1" parent="XSov8CbB3q0jQ4jJmmDo-0">
          <mxGeometry x="60" y="12" width="110" height="26" as="geometry" />
        </mxCell>
        <mxCell id="XSov8CbB3q0jQ4jJmmDo-2" value="https://www.draw.io" style="strokeWidth=1;shadow=0;dashed=0;align=center;html=1;shape=mxgraph.mockup.containers.anchor;rSize=0;fontSize=17;fontColor=#666666;align=left;" vertex="1" parent="XSov8CbB3q0jQ4jJmmDo-0">
          <mxGeometry x="130" y="60" width="250" height="26" as="geometry" />
        </mxCell>
        <mxCell id="XSov8CbB3q0jQ4jJmmDo-3" value="Create Post" style="text;html=1;strokeColor=none;fillColor=none;align=left;verticalAlign=middle;whiteSpace=wrap;rounded=0;fontSize=28;" vertex="1" parent="XSov8CbB3q0jQ4jJmmDo-0">
          <mxGeometry x="20" y="120" width="200" height="20" as="geometry" />
        </mxCell>
        <mxCell id="XSov8CbB3q0jQ4jJmmDo-4" value="" style="whiteSpace=wrap;html=1;fontSize=28;align=left;" vertex="1" parent="XSov8CbB3q0jQ4jJmmDo-0">
          <mxGeometry x="40" y="175" width="180" height="25" as="geometry" />
        </mxCell>
        <mxCell id="XSov8CbB3q0jQ4jJmmDo-5" value="Title" style="text;html=1;strokeColor=none;fillColor=none;align=left;verticalAlign=middle;whiteSpace=wrap;rounded=0;fontSize=18;" vertex="1" parent="XSov8CbB3q0jQ4jJmmDo-0">
          <mxGeometry x="40" y="150" width="200" height="20" as="geometry" />
        </mxCell>
        <mxCell id="XSov8CbB3q0jQ4jJmmDo-6" value="Submit" style="whiteSpace=wrap;html=1;fontSize=16;align=center;rounded=1;" vertex="1" parent="XSov8CbB3q0jQ4jJmmDo-0">
          <mxGeometry x="40" y="210" width="80" height="25" as="geometry" />
        </mxCell>
        <mxCell id="XSov8CbB3q0jQ4jJmmDo-7" value="" style="endArrow=none;html=1;fontSize=16;" edge="1" parent="XSov8CbB3q0jQ4jJmmDo-0">
          <mxGeometry width="50" height="50" relative="1" as="geometry">
            <mxPoint x="20" y="240" as="sourcePoint" />
            <mxPoint x="440" y="240" as="targetPoint" />
          </mxGeometry>
        </mxCell>
        <mxCell id="XSov8CbB3q0jQ4jJmmDo-8" value="" style="rounded=0;whiteSpace=wrap;html=1;fontSize=16;align=center;fillColor=#dae8fc;strokeColor=#6c8ebf;" vertex="1" parent="XSov8CbB3q0jQ4jJmmDo-0">
          <mxGeometry x="25" y="250" width="215" height="170" as="geometry" />
        </mxCell>
        <mxCell id="XSov8CbB3q0jQ4jJmmDo-9" value="My Post" style="text;html=1;strokeColor=none;fillColor=none;align=left;verticalAlign=middle;whiteSpace=wrap;rounded=0;fontSize=28;" vertex="1" parent="XSov8CbB3q0jQ4jJmmDo-0">
          <mxGeometry x="30" y="260" width="200" height="20" as="geometry" />
        </mxCell>
        <mxCell id="XSov8CbB3q0jQ4jJmmDo-10" value="&lt;i&gt;1 comments&lt;/i&gt;" style="text;html=1;strokeColor=none;fillColor=none;align=center;verticalAlign=middle;whiteSpace=wrap;rounded=0;fontSize=16;" vertex="1" parent="XSov8CbB3q0jQ4jJmmDo-0">
          <mxGeometry x="30" y="285" width="100" height="20" as="geometry" />
        </mxCell>
        <mxCell id="XSov8CbB3q0jQ4jJmmDo-11" value="&lt;ul&gt;&lt;li&gt;Im a comment!&lt;/li&gt;&lt;/ul&gt;" style="text;html=1;strokeColor=none;fillColor=none;align=left;verticalAlign=middle;whiteSpace=wrap;rounded=0;fontSize=18;" vertex="1" parent="XSov8CbB3q0jQ4jJmmDo-0">
          <mxGeometry x="40" y="310" width="200" height="20" as="geometry" />
        </mxCell>
        <mxCell id="XSov8CbB3q0jQ4jJmmDo-12" value="" style="whiteSpace=wrap;html=1;fontSize=28;align=left;" vertex="1" parent="XSov8CbB3q0jQ4jJmmDo-0">
          <mxGeometry x="32.5" y="359" width="180" height="25" as="geometry" />
        </mxCell>
        <mxCell id="XSov8CbB3q0jQ4jJmmDo-13" value="Comment" style="text;html=1;strokeColor=none;fillColor=none;align=left;verticalAlign=middle;whiteSpace=wrap;rounded=0;fontSize=15;" vertex="1" parent="XSov8CbB3q0jQ4jJmmDo-0">
          <mxGeometry x="32.5" y="340" width="200" height="20" as="geometry" />
        </mxCell>
        <mxCell id="XSov8CbB3q0jQ4jJmmDo-14" value="Submit" style="whiteSpace=wrap;html=1;fontSize=16;align=center;rounded=1;" vertex="1" parent="XSov8CbB3q0jQ4jJmmDo-0">
          <mxGeometry x="32.5" y="388" width="80" height="25" as="geometry" />
        </mxCell>
        <mxCell id="XSov8CbB3q0jQ4jJmmDo-15" value="" style="rounded=0;whiteSpace=wrap;html=1;fontSize=16;align=center;fillColor=#dae8fc;strokeColor=#6c8ebf;" vertex="1" parent="XSov8CbB3q0jQ4jJmmDo-0">
          <mxGeometry x="250" y="250" width="215" height="170" as="geometry" />
        </mxCell>
        <mxCell id="XSov8CbB3q0jQ4jJmmDo-16" value="Post #2" style="text;html=1;strokeColor=none;fillColor=none;align=left;verticalAlign=middle;whiteSpace=wrap;rounded=0;fontSize=28;" vertex="1" parent="XSov8CbB3q0jQ4jJmmDo-0">
          <mxGeometry x="255" y="260" width="200" height="20" as="geometry" />
        </mxCell>
        <mxCell id="XSov8CbB3q0jQ4jJmmDo-17" value="&lt;i&gt;1 comments&lt;/i&gt;" style="text;html=1;strokeColor=none;fillColor=none;align=center;verticalAlign=middle;whiteSpace=wrap;rounded=0;fontSize=16;" vertex="1" parent="XSov8CbB3q0jQ4jJmmDo-0">
          <mxGeometry x="255" y="285" width="100" height="20" as="geometry" />
        </mxCell>
        <mxCell id="XSov8CbB3q0jQ4jJmmDo-18" value="&lt;ul&gt;&lt;li&gt;Im a comment!&lt;/li&gt;&lt;/ul&gt;" style="text;html=1;strokeColor=none;fillColor=none;align=left;verticalAlign=middle;whiteSpace=wrap;rounded=0;fontSize=18;" vertex="1" parent="XSov8CbB3q0jQ4jJmmDo-0">
          <mxGeometry x="265" y="310" width="165" height="20" as="geometry" />
        </mxCell>
        <mxCell id="XSov8CbB3q0jQ4jJmmDo-19" value="" style="whiteSpace=wrap;html=1;fontSize=28;align=left;" vertex="1" parent="XSov8CbB3q0jQ4jJmmDo-0">
          <mxGeometry x="257.5" y="359" width="180" height="25" as="geometry" />
        </mxCell>
        <mxCell id="XSov8CbB3q0jQ4jJmmDo-20" value="Comment" style="text;html=1;strokeColor=none;fillColor=none;align=left;verticalAlign=middle;whiteSpace=wrap;rounded=0;fontSize=15;" vertex="1" parent="XSov8CbB3q0jQ4jJmmDo-0">
          <mxGeometry x="257.5" y="340" width="200" height="20" as="geometry" />
        </mxCell>
        <mxCell id="XSov8CbB3q0jQ4jJmmDo-21" value="Submit" style="whiteSpace=wrap;html=1;fontSize=16;align=center;rounded=1;" vertex="1" parent="XSov8CbB3q0jQ4jJmmDo-0">
          <mxGeometry x="257.5" y="388" width="80" height="25" as="geometry" />
        </mxCell>
        <mxCell id="XSov8CbB3q0jQ4jJmmDo-24" style="edgeStyle=orthogonalEdgeStyle;rounded=0;orthogonalLoop=1;jettySize=auto;html=1;exitX=0;exitY=0.5;exitDx=0;exitDy=0;entryX=1.002;entryY=0.122;entryDx=0;entryDy=0;entryPerimeter=0;fontSize=19;" edge="1" parent="U1OQqhAELoA_2gi_HB3H-1" source="XSov8CbB3q0jQ4jJmmDo-22" target="XSov8CbB3q0jQ4jJmmDo-15">
          <mxGeometry relative="1" as="geometry" />
        </mxCell>
        <mxCell id="XSov8CbB3q0jQ4jJmmDo-22" value="Posts" style="whiteSpace=wrap;html=1;rounded=0;shadow=1;fontSize=25;align=center;fillColor=#ffe6cc;strokeColor=#d79b00;fontStyle=1" vertex="1" parent="U1OQqhAELoA_2gi_HB3H-1">
          <mxGeometry x="940" y="490" width="240" height="80" as="geometry" />
        </mxCell>
        <mxCell id="XSov8CbB3q0jQ4jJmmDo-25" style="edgeStyle=orthogonalEdgeStyle;rounded=0;orthogonalLoop=1;jettySize=auto;html=1;exitX=0;exitY=0.5;exitDx=0;exitDy=0;fontSize=19;" edge="1" parent="U1OQqhAELoA_2gi_HB3H-1" source="XSov8CbB3q0jQ4jJmmDo-23" target="XSov8CbB3q0jQ4jJmmDo-18">
          <mxGeometry relative="1" as="geometry" />
        </mxCell>
        <mxCell id="XSov8CbB3q0jQ4jJmmDo-23" value="Comments" style="whiteSpace=wrap;html=1;rounded=0;shadow=1;fontSize=25;align=center;fillColor=#ffe6cc;strokeColor=#d79b00;fontStyle=1" vertex="1" parent="U1OQqhAELoA_2gi_HB3H-1">
          <mxGeometry x="940" y="590" width="240" height="80" as="geometry" />
        </mxCell>
      </root>
    </mxGraphModel>
  </diagram>
  <diagram id="A5hKxWNW-DElpA2pRo46" name="05 - do">
    <mxGraphModel dx="858" dy="422" grid="1" gridSize="10" guides="1" tooltips="1" connect="1" arrows="1" fold="1" page="1" pageScale="1" pageWidth="1920" pageHeight="1200" math="0" shadow="0">
      <root>
        <mxCell id="uhU3a67ZhyW_BlOrAEtE-0" />
        <mxCell id="uhU3a67ZhyW_BlOrAEtE-1" parent="uhU3a67ZhyW_BlOrAEtE-0" />
        <mxCell id="D1Mxk7dmZHKRx_fCSwat-3" style="edgeStyle=orthogonalEdgeStyle;rounded=0;orthogonalLoop=1;jettySize=auto;html=1;exitX=1;exitY=0.5;exitDx=0;exitDy=0;fontSize=19;" edge="1" parent="uhU3a67ZhyW_BlOrAEtE-1" source="D1Mxk7dmZHKRx_fCSwat-0" target="D1Mxk7dmZHKRx_fCSwat-2">
          <mxGeometry relative="1" as="geometry" />
        </mxCell>
        <mxCell id="D1Mxk7dmZHKRx_fCSwat-5" style="edgeStyle=orthogonalEdgeStyle;rounded=0;orthogonalLoop=1;jettySize=auto;html=1;exitX=1;exitY=0.5;exitDx=0;exitDy=0;entryX=0;entryY=0.5;entryDx=0;entryDy=0;fontSize=19;" edge="1" parent="uhU3a67ZhyW_BlOrAEtE-1" source="D1Mxk7dmZHKRx_fCSwat-0" target="D1Mxk7dmZHKRx_fCSwat-4">
          <mxGeometry relative="1" as="geometry" />
        </mxCell>
        <mxCell id="D1Mxk7dmZHKRx_fCSwat-0" value="Posts" style="whiteSpace=wrap;html=1;rounded=0;shadow=1;fontSize=25;align=center;fillColor=#ffe6cc;strokeColor=#d79b00;fontStyle=1" vertex="1" parent="uhU3a67ZhyW_BlOrAEtE-1">
          <mxGeometry x="530" y="250" width="240" height="80" as="geometry" />
        </mxCell>
        <mxCell id="D1Mxk7dmZHKRx_fCSwat-11" style="edgeStyle=orthogonalEdgeStyle;rounded=0;orthogonalLoop=1;jettySize=auto;html=1;exitX=1;exitY=0.5;exitDx=0;exitDy=0;fontSize=19;" edge="1" parent="uhU3a67ZhyW_BlOrAEtE-1" source="D1Mxk7dmZHKRx_fCSwat-1" target="D1Mxk7dmZHKRx_fCSwat-9">
          <mxGeometry relative="1" as="geometry" />
        </mxCell>
        <mxCell id="D1Mxk7dmZHKRx_fCSwat-1" value="Comments" style="whiteSpace=wrap;html=1;rounded=0;shadow=1;fontSize=25;align=center;fillColor=#ffe6cc;strokeColor=#d79b00;fontStyle=1" vertex="1" parent="uhU3a67ZhyW_BlOrAEtE-1">
          <mxGeometry x="530" y="420" width="240" height="80" as="geometry" />
        </mxCell>
        <mxCell id="D1Mxk7dmZHKRx_fCSwat-2" value="List all Posts" style="whiteSpace=wrap;html=1;rounded=0;shadow=1;fontSize=25;align=center;fontStyle=0" vertex="1" parent="uhU3a67ZhyW_BlOrAEtE-1">
          <mxGeometry x="840" y="300" width="240" height="60" as="geometry" />
        </mxCell>
        <mxCell id="D1Mxk7dmZHKRx_fCSwat-4" value="Create a Post" style="whiteSpace=wrap;html=1;rounded=0;shadow=1;fontSize=25;align=center;fontStyle=0" vertex="1" parent="uhU3a67ZhyW_BlOrAEtE-1">
          <mxGeometry x="840" y="220" width="240" height="60" as="geometry" />
        </mxCell>
        <mxCell id="D1Mxk7dmZHKRx_fCSwat-8" style="edgeStyle=orthogonalEdgeStyle;rounded=0;orthogonalLoop=1;jettySize=auto;html=1;exitX=1;exitY=0.5;exitDx=0;exitDy=0;entryX=0;entryY=0.5;entryDx=0;entryDy=0;fontSize=19;" edge="1" parent="uhU3a67ZhyW_BlOrAEtE-1" target="D1Mxk7dmZHKRx_fCSwat-10">
          <mxGeometry relative="1" as="geometry">
            <mxPoint x="770" y="460" as="sourcePoint" />
          </mxGeometry>
        </mxCell>
        <mxCell id="D1Mxk7dmZHKRx_fCSwat-9" value="List all comments" style="whiteSpace=wrap;html=1;rounded=0;shadow=1;fontSize=25;align=center;fontStyle=0" vertex="1" parent="uhU3a67ZhyW_BlOrAEtE-1">
          <mxGeometry x="840" y="470" width="240" height="60" as="geometry" />
        </mxCell>
        <mxCell id="D1Mxk7dmZHKRx_fCSwat-10" value="Create a Comment" style="whiteSpace=wrap;html=1;rounded=0;shadow=1;fontSize=25;align=center;fontStyle=0" vertex="1" parent="uhU3a67ZhyW_BlOrAEtE-1">
          <mxGeometry x="840" y="390" width="240" height="60" as="geometry" />
        </mxCell>
      </root>
    </mxGraphModel>
  </diagram>
  <diagram id="_6h6sNzacK0jXlvdHcrQ" name="06 - tech">
    <mxGraphModel dx="1036" dy="510" grid="1" gridSize="10" guides="1" tooltips="1" connect="1" arrows="1" fold="1" page="1" pageScale="1" pageWidth="1920" pageHeight="1200" math="0" shadow="0">
      <root>
        <mxCell id="0LpbzwrgRu5vXMNV-YC1-0" />
        <mxCell id="0LpbzwrgRu5vXMNV-YC1-1" parent="0LpbzwrgRu5vXMNV-YC1-0" />
        <mxCell id="3LpYTyU1MKDTDnTtLDbJ-7" value="Posts Service" style="rounded=0;whiteSpace=wrap;html=1;shadow=1;fontSize=21;align=center;fillColor=#f5f5f5;strokeColor=#666666;fontColor=#333333;fontStyle=1" vertex="1" parent="0LpbzwrgRu5vXMNV-YC1-1">
          <mxGeometry x="720" y="160" width="390" height="40" as="geometry" />
        </mxCell>
        <mxCell id="3LpYTyU1MKDTDnTtLDbJ-6" value="" style="rounded=0;whiteSpace=wrap;html=1;shadow=1;fontSize=17;align=left;fillColor=#f5f5f5;strokeColor=#666666;fontColor=#333333;" vertex="1" parent="0LpbzwrgRu5vXMNV-YC1-1">
          <mxGeometry x="720" y="200" width="390" height="110" as="geometry" />
        </mxCell>
        <mxCell id="3LpYTyU1MKDTDnTtLDbJ-0" value="Posts Feature" style="whiteSpace=wrap;html=1;rounded=0;shadow=1;fontSize=25;align=center;fillColor=#ffe6cc;strokeColor=#d79b00;fontStyle=1" vertex="1" parent="0LpbzwrgRu5vXMNV-YC1-1">
          <mxGeometry x="900" y="215" width="200" height="80" as="geometry" />
        </mxCell>
        <mxCell id="3LpYTyU1MKDTDnTtLDbJ-2" value="" style="strokeWidth=1;shadow=0;dashed=0;align=center;html=1;shape=mxgraph.mockup.containers.browserWindow;rSize=0;strokeColor=#666666;strokeColor2=#008cff;strokeColor3=#c4c4c4;mainText=,;recursiveResize=0;rounded=0;fontSize=17;" vertex="1" parent="0LpbzwrgRu5vXMNV-YC1-1">
          <mxGeometry x="220" y="170" width="370" height="310" as="geometry" />
        </mxCell>
        <mxCell id="3LpYTyU1MKDTDnTtLDbJ-3" value="Page 1" style="strokeWidth=1;shadow=0;dashed=0;align=center;html=1;shape=mxgraph.mockup.containers.anchor;fontSize=17;fontColor=#666666;align=left;" vertex="1" parent="3LpYTyU1MKDTDnTtLDbJ-2">
          <mxGeometry x="60" y="12" width="110" height="26" as="geometry" />
        </mxCell>
        <mxCell id="3LpYTyU1MKDTDnTtLDbJ-4" value="localhost" style="strokeWidth=1;shadow=0;dashed=0;align=center;html=1;shape=mxgraph.mockup.containers.anchor;rSize=0;fontSize=17;fontColor=#666666;align=left;" vertex="1" parent="3LpYTyU1MKDTDnTtLDbJ-2">
          <mxGeometry x="130" y="60" width="250" height="26" as="geometry" />
        </mxCell>
        <mxCell id="3LpYTyU1MKDTDnTtLDbJ-15" style="edgeStyle=orthogonalEdgeStyle;rounded=0;orthogonalLoop=1;jettySize=auto;html=1;exitX=1;exitY=0.5;exitDx=0;exitDy=0;entryX=0;entryY=0.5;entryDx=0;entryDy=0;fontSize=21;" edge="1" parent="0LpbzwrgRu5vXMNV-YC1-1" source="3LpYTyU1MKDTDnTtLDbJ-5" target="3LpYTyU1MKDTDnTtLDbJ-6">
          <mxGeometry relative="1" as="geometry" />
        </mxCell>
        <mxCell id="3LpYTyU1MKDTDnTtLDbJ-16" style="edgeStyle=orthogonalEdgeStyle;rounded=0;orthogonalLoop=1;jettySize=auto;html=1;exitX=1;exitY=0.5;exitDx=0;exitDy=0;fontSize=21;" edge="1" parent="0LpbzwrgRu5vXMNV-YC1-1" source="3LpYTyU1MKDTDnTtLDbJ-5" target="3LpYTyU1MKDTDnTtLDbJ-11">
          <mxGeometry relative="1" as="geometry" />
        </mxCell>
        <mxCell id="3LpYTyU1MKDTDnTtLDbJ-5" value="React App" style="whiteSpace=wrap;html=1;rounded=0;shadow=1;fontSize=25;align=center;fillColor=#ffe6cc;strokeColor=#d79b00;fontStyle=1" vertex="1" parent="0LpbzwrgRu5vXMNV-YC1-1">
          <mxGeometry x="290" y="320" width="240" height="80" as="geometry" />
        </mxCell>
        <mxCell id="3LpYTyU1MKDTDnTtLDbJ-9" style="edgeStyle=orthogonalEdgeStyle;rounded=0;orthogonalLoop=1;jettySize=auto;html=1;exitX=1;exitY=0.5;exitDx=0;exitDy=0;fontSize=21;" edge="1" parent="0LpbzwrgRu5vXMNV-YC1-1" source="3LpYTyU1MKDTDnTtLDbJ-8" target="3LpYTyU1MKDTDnTtLDbJ-0">
          <mxGeometry relative="1" as="geometry" />
        </mxCell>
        <mxCell id="3LpYTyU1MKDTDnTtLDbJ-8" value="Router" style="whiteSpace=wrap;html=1;rounded=0;shadow=1;fontSize=25;align=center;fontStyle=1" vertex="1" parent="0LpbzwrgRu5vXMNV-YC1-1">
          <mxGeometry x="740" y="215" width="130" height="80" as="geometry" />
        </mxCell>
        <mxCell id="3LpYTyU1MKDTDnTtLDbJ-10" value="Comments Service" style="rounded=0;whiteSpace=wrap;html=1;shadow=1;fontSize=21;align=center;fillColor=#f5f5f5;strokeColor=#666666;fontColor=#333333;fontStyle=1" vertex="1" parent="0LpbzwrgRu5vXMNV-YC1-1">
          <mxGeometry x="720" y="340" width="390" height="40" as="geometry" />
        </mxCell>
        <mxCell id="3LpYTyU1MKDTDnTtLDbJ-11" value="" style="rounded=0;whiteSpace=wrap;html=1;shadow=1;fontSize=17;align=left;fillColor=#f5f5f5;strokeColor=#666666;fontColor=#333333;" vertex="1" parent="0LpbzwrgRu5vXMNV-YC1-1">
          <mxGeometry x="720" y="380" width="390" height="110" as="geometry" />
        </mxCell>
        <mxCell id="3LpYTyU1MKDTDnTtLDbJ-12" value="Comments Feature" style="whiteSpace=wrap;html=1;rounded=0;shadow=1;fontSize=25;align=center;fillColor=#ffe6cc;strokeColor=#d79b00;fontStyle=1" vertex="1" parent="0LpbzwrgRu5vXMNV-YC1-1">
          <mxGeometry x="900" y="395" width="200" height="80" as="geometry" />
        </mxCell>
        <mxCell id="3LpYTyU1MKDTDnTtLDbJ-13" style="edgeStyle=orthogonalEdgeStyle;rounded=0;orthogonalLoop=1;jettySize=auto;html=1;exitX=1;exitY=0.5;exitDx=0;exitDy=0;fontSize=21;" edge="1" parent="0LpbzwrgRu5vXMNV-YC1-1" source="3LpYTyU1MKDTDnTtLDbJ-14" target="3LpYTyU1MKDTDnTtLDbJ-12">
          <mxGeometry relative="1" as="geometry" />
        </mxCell>
        <mxCell id="3LpYTyU1MKDTDnTtLDbJ-14" value="Router" style="whiteSpace=wrap;html=1;rounded=0;shadow=1;fontSize=25;align=center;fontStyle=1" vertex="1" parent="0LpbzwrgRu5vXMNV-YC1-1">
          <mxGeometry x="740" y="395" width="130" height="80" as="geometry" />
        </mxCell>
      </root>
    </mxGraphModel>
  </diagram>
  <diagram id="qMQby4PcXDA7YpjeASCr" name="07 - steps">
    <mxGraphModel dx="791" dy="389" grid="1" gridSize="10" guides="1" tooltips="1" connect="1" arrows="1" fold="1" page="1" pageScale="1" pageWidth="1920" pageHeight="1200" math="0" shadow="0">
      <root>
        <mxCell id="Qr00MzdxH0v1BvLKcdbR-0" />
        <mxCell id="Qr00MzdxH0v1BvLKcdbR-1" parent="Qr00MzdxH0v1BvLKcdbR-0" />
        <mxCell id="Qr00MzdxH0v1BvLKcdbR-2" value="Generate a new React App using Create-React-App" style="rounded=0;whiteSpace=wrap;html=1;shadow=1;fontSize=21;align=center;" vertex="1" parent="Qr00MzdxH0v1BvLKcdbR-1">
          <mxGeometry x="580" y="200" width="540" height="60" as="geometry" />
        </mxCell>
        <mxCell id="Qr00MzdxH0v1BvLKcdbR-3" value="Initial App Setup" style="text;html=1;strokeColor=none;fillColor=none;align=center;verticalAlign=middle;whiteSpace=wrap;rounded=0;shadow=1;fontSize=21;fontStyle=1" vertex="1" parent="Qr00MzdxH0v1BvLKcdbR-1">
          <mxGeometry x="690" y="170" width="320" height="20" as="geometry" />
        </mxCell>
        <mxCell id="Qr00MzdxH0v1BvLKcdbR-4" value="Create an Express-based project for the &lt;b&gt;Posts&lt;/b&gt; Service" style="rounded=0;whiteSpace=wrap;html=1;shadow=1;fontSize=21;align=center;" vertex="1" parent="Qr00MzdxH0v1BvLKcdbR-1">
          <mxGeometry x="580" y="270" width="540" height="60" as="geometry" />
        </mxCell>
        <mxCell id="Qr00MzdxH0v1BvLKcdbR-5" value="Create an Express-based project for the &lt;b&gt;Comments&lt;/b&gt; Service" style="rounded=0;whiteSpace=wrap;html=1;shadow=1;fontSize=21;align=center;" vertex="1" parent="Qr00MzdxH0v1BvLKcdbR-1">
          <mxGeometry x="580" y="340" width="540" height="60" as="geometry" />
        </mxCell>
      </root>
    </mxGraphModel>
  </diagram>
  <diagram id="gK8EyDn8dzjZo_l4u2Y7" name="08 - design">
    <mxGraphModel dx="858" dy="422" grid="1" gridSize="10" guides="1" tooltips="1" connect="1" arrows="1" fold="1" page="1" pageScale="1" pageWidth="1920" pageHeight="1200" math="0" shadow="0">
      <root>
        <mxCell id="yGTn8xywTEx8TnLs9gTo-0" />
        <mxCell id="yGTn8xywTEx8TnLs9gTo-1" parent="yGTn8xywTEx8TnLs9gTo-0" />
        <mxCell id="R0XozutOucGTPZ1cg_Fd-0" value="Posts Service" style="whiteSpace=wrap;html=1;rounded=0;shadow=1;fontSize=25;align=center;fillColor=#ffe6cc;strokeColor=#d79b00;fontStyle=1" vertex="1" parent="yGTn8xywTEx8TnLs9gTo-1">
          <mxGeometry x="440" y="180" width="710" height="60" as="geometry" />
        </mxCell>
        <mxCell id="R0XozutOucGTPZ1cg_Fd-3" value="Path" style="rounded=0;whiteSpace=wrap;html=1;shadow=1;fontSize=21;align=center;fillColor=#dae8fc;strokeColor=#6c8ebf;" vertex="1" parent="yGTn8xywTEx8TnLs9gTo-1">
          <mxGeometry x="440" y="250" width="120" height="30" as="geometry" />
        </mxCell>
        <mxCell id="R0XozutOucGTPZ1cg_Fd-4" value="Method" style="rounded=0;whiteSpace=wrap;html=1;shadow=1;fontSize=21;align=center;fillColor=#dae8fc;strokeColor=#6c8ebf;" vertex="1" parent="yGTn8xywTEx8TnLs9gTo-1">
          <mxGeometry x="570" y="250" width="120" height="30" as="geometry" />
        </mxCell>
        <mxCell id="R0XozutOucGTPZ1cg_Fd-5" value="Body?" style="rounded=0;whiteSpace=wrap;html=1;shadow=1;fontSize=21;align=center;fillColor=#dae8fc;strokeColor=#6c8ebf;" vertex="1" parent="yGTn8xywTEx8TnLs9gTo-1">
          <mxGeometry x="700" y="250" width="220" height="30" as="geometry" />
        </mxCell>
        <mxCell id="R0XozutOucGTPZ1cg_Fd-6" value="Goal" style="rounded=0;whiteSpace=wrap;html=1;shadow=1;fontSize=21;align=center;fillColor=#dae8fc;strokeColor=#6c8ebf;" vertex="1" parent="yGTn8xywTEx8TnLs9gTo-1">
          <mxGeometry x="930" y="250" width="220" height="30" as="geometry" />
        </mxCell>
        <mxCell id="R0XozutOucGTPZ1cg_Fd-7" value="/posts" style="rounded=0;whiteSpace=wrap;html=1;shadow=1;fontSize=21;align=center;" vertex="1" parent="yGTn8xywTEx8TnLs9gTo-1">
          <mxGeometry x="440" y="300" width="120" height="50" as="geometry" />
        </mxCell>
        <mxCell id="R0XozutOucGTPZ1cg_Fd-8" value="POST" style="rounded=0;whiteSpace=wrap;html=1;shadow=1;fontSize=21;align=center;" vertex="1" parent="yGTn8xywTEx8TnLs9gTo-1">
          <mxGeometry x="570" y="300" width="120" height="50" as="geometry" />
        </mxCell>
        <mxCell id="R0XozutOucGTPZ1cg_Fd-9" value="{ title: string }" style="rounded=0;whiteSpace=wrap;html=1;shadow=1;fontSize=21;align=center;" vertex="1" parent="yGTn8xywTEx8TnLs9gTo-1">
          <mxGeometry x="700" y="300" width="220" height="50" as="geometry" />
        </mxCell>
        <mxCell id="R0XozutOucGTPZ1cg_Fd-10" value="Create a new post" style="rounded=0;whiteSpace=wrap;html=1;shadow=1;fontSize=21;align=center;" vertex="1" parent="yGTn8xywTEx8TnLs9gTo-1">
          <mxGeometry x="930" y="300" width="220" height="50" as="geometry" />
        </mxCell>
        <mxCell id="R0XozutOucGTPZ1cg_Fd-11" value="/posts" style="rounded=0;whiteSpace=wrap;html=1;shadow=1;fontSize=21;align=center;" vertex="1" parent="yGTn8xywTEx8TnLs9gTo-1">
          <mxGeometry x="440" y="370" width="120" height="50" as="geometry" />
        </mxCell>
        <mxCell id="R0XozutOucGTPZ1cg_Fd-12" value="GET" style="rounded=0;whiteSpace=wrap;html=1;shadow=1;fontSize=21;align=center;" vertex="1" parent="yGTn8xywTEx8TnLs9gTo-1">
          <mxGeometry x="570" y="370" width="120" height="50" as="geometry" />
        </mxCell>
        <mxCell id="R0XozutOucGTPZ1cg_Fd-13" value="-" style="rounded=0;whiteSpace=wrap;html=1;shadow=1;fontSize=21;align=center;" vertex="1" parent="yGTn8xywTEx8TnLs9gTo-1">
          <mxGeometry x="700" y="370" width="220" height="50" as="geometry" />
        </mxCell>
        <mxCell id="R0XozutOucGTPZ1cg_Fd-14" value="Retrieve all posts" style="rounded=0;whiteSpace=wrap;html=1;shadow=1;fontSize=21;align=center;" vertex="1" parent="yGTn8xywTEx8TnLs9gTo-1">
          <mxGeometry x="930" y="370" width="220" height="50" as="geometry" />
        </mxCell>
      </root>
    </mxGraphModel>
  </diagram>
  <diagram id="zf3gBB8DFvBVisdCPFoT" name="09 - comments">
    <mxGraphModel dx="969" dy="477" grid="1" gridSize="10" guides="1" tooltips="1" connect="1" arrows="1" fold="1" page="1" pageScale="1" pageWidth="1920" pageHeight="1200" math="0" shadow="0">
      <root>
        <mxCell id="RhvrsVBaQ_iwztT-kojw-0" />
        <mxCell id="RhvrsVBaQ_iwztT-kojw-1" parent="RhvrsVBaQ_iwztT-kojw-0" />
        <mxCell id="RhvrsVBaQ_iwztT-kojw-2" value="Comments Service" style="whiteSpace=wrap;html=1;rounded=0;shadow=1;fontSize=25;align=center;fillColor=#d5e8d4;strokeColor=#82b366;fontStyle=1" vertex="1" parent="RhvrsVBaQ_iwztT-kojw-1">
          <mxGeometry x="360" y="180" width="810" height="60" as="geometry" />
        </mxCell>
        <mxCell id="RhvrsVBaQ_iwztT-kojw-3" value="Path" style="rounded=0;whiteSpace=wrap;html=1;shadow=1;fontSize=21;align=center;fillColor=#dae8fc;strokeColor=#6c8ebf;" vertex="1" parent="RhvrsVBaQ_iwztT-kojw-1">
          <mxGeometry x="360" y="250" width="200" height="30" as="geometry" />
        </mxCell>
        <mxCell id="RhvrsVBaQ_iwztT-kojw-4" value="Method" style="rounded=0;whiteSpace=wrap;html=1;shadow=1;fontSize=21;align=center;fillColor=#dae8fc;strokeColor=#6c8ebf;" vertex="1" parent="RhvrsVBaQ_iwztT-kojw-1">
          <mxGeometry x="570" y="250" width="120" height="30" as="geometry" />
        </mxCell>
        <mxCell id="RhvrsVBaQ_iwztT-kojw-5" value="Body?" style="rounded=0;whiteSpace=wrap;html=1;shadow=1;fontSize=21;align=center;fillColor=#dae8fc;strokeColor=#6c8ebf;" vertex="1" parent="RhvrsVBaQ_iwztT-kojw-1">
          <mxGeometry x="700" y="250" width="220" height="30" as="geometry" />
        </mxCell>
        <mxCell id="RhvrsVBaQ_iwztT-kojw-6" value="Goal" style="rounded=0;whiteSpace=wrap;html=1;shadow=1;fontSize=21;align=center;fillColor=#dae8fc;strokeColor=#6c8ebf;" vertex="1" parent="RhvrsVBaQ_iwztT-kojw-1">
          <mxGeometry x="930" y="250" width="240" height="30" as="geometry" />
        </mxCell>
        <mxCell id="RhvrsVBaQ_iwztT-kojw-7" value="/posts/:id/comments" style="rounded=0;whiteSpace=wrap;html=1;shadow=1;fontSize=21;align=center;" vertex="1" parent="RhvrsVBaQ_iwztT-kojw-1">
          <mxGeometry x="360" y="300" width="200" height="50" as="geometry" />
        </mxCell>
        <mxCell id="RhvrsVBaQ_iwztT-kojw-8" value="POST" style="rounded=0;whiteSpace=wrap;html=1;shadow=1;fontSize=21;align=center;" vertex="1" parent="RhvrsVBaQ_iwztT-kojw-1">
          <mxGeometry x="570" y="300" width="120" height="50" as="geometry" />
        </mxCell>
        <mxCell id="RhvrsVBaQ_iwztT-kojw-9" value="{ content: string }" style="rounded=0;whiteSpace=wrap;html=1;shadow=1;fontSize=21;align=center;" vertex="1" parent="RhvrsVBaQ_iwztT-kojw-1">
          <mxGeometry x="700" y="300" width="220" height="50" as="geometry" />
        </mxCell>
        <mxCell id="RhvrsVBaQ_iwztT-kojw-10" value="Create a comment associated with the given post ID" style="rounded=0;whiteSpace=wrap;html=1;shadow=1;fontSize=16;align=center;" vertex="1" parent="RhvrsVBaQ_iwztT-kojw-1">
          <mxGeometry x="930" y="300" width="240" height="50" as="geometry" />
        </mxCell>
        <mxCell id="RhvrsVBaQ_iwztT-kojw-11" value="/posts/:id/comments" style="rounded=0;whiteSpace=wrap;html=1;shadow=1;fontSize=21;align=center;" vertex="1" parent="RhvrsVBaQ_iwztT-kojw-1">
          <mxGeometry x="360" y="370" width="200" height="50" as="geometry" />
        </mxCell>
        <mxCell id="RhvrsVBaQ_iwztT-kojw-12" value="GET" style="rounded=0;whiteSpace=wrap;html=1;shadow=1;fontSize=21;align=center;" vertex="1" parent="RhvrsVBaQ_iwztT-kojw-1">
          <mxGeometry x="570" y="370" width="120" height="50" as="geometry" />
        </mxCell>
        <mxCell id="RhvrsVBaQ_iwztT-kojw-13" value="-" style="rounded=0;whiteSpace=wrap;html=1;shadow=1;fontSize=21;align=center;" vertex="1" parent="RhvrsVBaQ_iwztT-kojw-1">
          <mxGeometry x="700" y="370" width="220" height="50" as="geometry" />
        </mxCell>
        <mxCell id="RhvrsVBaQ_iwztT-kojw-14" value="Retrieve all comments associated with the given post ID" style="rounded=0;whiteSpace=wrap;html=1;shadow=1;fontSize=16;align=center;" vertex="1" parent="RhvrsVBaQ_iwztT-kojw-1">
          <mxGeometry x="930" y="370" width="240" height="50" as="geometry" />
        </mxCell>
      </root>
    </mxGraphModel>
  </diagram>
  <diagram id="WUJc4MlJqJF0UqagaXrP" name="10 - comments">
    <mxGraphModel dx="910" dy="448" grid="1" gridSize="10" guides="1" tooltips="1" connect="1" arrows="1" fold="1" page="1" pageScale="1" pageWidth="1920" pageHeight="1200" math="0" shadow="0">
      <root>
        <mxCell id="64PbGBQ9wKXogZcfSaWZ-0" />
        <mxCell id="64PbGBQ9wKXogZcfSaWZ-1" parent="64PbGBQ9wKXogZcfSaWZ-0" />
        <mxCell id="64PbGBQ9wKXogZcfSaWZ-14" value="" style="rounded=0;whiteSpace=wrap;html=1;shadow=1;fontSize=16;align=center;" vertex="1" parent="64PbGBQ9wKXogZcfSaWZ-1">
          <mxGeometry x="480" y="180" width="740" height="310" as="geometry" />
        </mxCell>
        <mxCell id="64PbGBQ9wKXogZcfSaWZ-6" style="edgeStyle=orthogonalEdgeStyle;rounded=0;orthogonalLoop=1;jettySize=auto;html=1;exitX=1;exitY=0.5;exitDx=0;exitDy=0;fontSize=16;" edge="1" parent="64PbGBQ9wKXogZcfSaWZ-1" source="64PbGBQ9wKXogZcfSaWZ-2">
          <mxGeometry relative="1" as="geometry">
            <mxPoint x="670" y="274.8275862068966" as="targetPoint" />
          </mxGeometry>
        </mxCell>
        <mxCell id="64PbGBQ9wKXogZcfSaWZ-2" value="&#39;35p5pj&#39;" style="rounded=0;whiteSpace=wrap;html=1;shadow=1;fontSize=16;align=center;fillColor=#d5e8d4;strokeColor=#82b366;" vertex="1" parent="64PbGBQ9wKXogZcfSaWZ-1">
          <mxGeometry x="500" y="250" width="120" height="50" as="geometry" />
        </mxCell>
        <mxCell id="64PbGBQ9wKXogZcfSaWZ-4" value="" style="rounded=0;whiteSpace=wrap;html=1;shadow=1;fontSize=16;align=center;fillColor=#f5f5f5;strokeColor=#666666;fontColor=#333333;" vertex="1" parent="64PbGBQ9wKXogZcfSaWZ-1">
          <mxGeometry x="670" y="225" width="520" height="100" as="geometry" />
        </mxCell>
        <mxCell id="64PbGBQ9wKXogZcfSaWZ-7" value="{ id: &#39;j325&#39;, content: &#39;great post&#39; }" style="rounded=0;whiteSpace=wrap;html=1;shadow=1;fontSize=16;align=center;fillColor=#dae8fc;strokeColor=#6c8ebf;" vertex="1" parent="64PbGBQ9wKXogZcfSaWZ-1">
          <mxGeometry x="680" y="252.5" width="240" height="45" as="geometry" />
        </mxCell>
        <mxCell id="64PbGBQ9wKXogZcfSaWZ-8" value="{ id: &#39;a5a5&#39;, content: &#39;neat!&#39; }" style="rounded=0;whiteSpace=wrap;html=1;shadow=1;fontSize=16;align=center;fillColor=#dae8fc;strokeColor=#6c8ebf;" vertex="1" parent="64PbGBQ9wKXogZcfSaWZ-1">
          <mxGeometry x="940" y="252.5" width="240" height="45" as="geometry" />
        </mxCell>
        <mxCell id="64PbGBQ9wKXogZcfSaWZ-9" style="edgeStyle=orthogonalEdgeStyle;rounded=0;orthogonalLoop=1;jettySize=auto;html=1;exitX=1;exitY=0.5;exitDx=0;exitDy=0;fontSize=16;" edge="1" parent="64PbGBQ9wKXogZcfSaWZ-1" source="64PbGBQ9wKXogZcfSaWZ-10">
          <mxGeometry relative="1" as="geometry">
            <mxPoint x="670" y="399.8275862068966" as="targetPoint" />
          </mxGeometry>
        </mxCell>
        <mxCell id="64PbGBQ9wKXogZcfSaWZ-10" value="&#39;a5uha5&#39;" style="rounded=0;whiteSpace=wrap;html=1;shadow=1;fontSize=16;align=center;fillColor=#d5e8d4;strokeColor=#82b366;" vertex="1" parent="64PbGBQ9wKXogZcfSaWZ-1">
          <mxGeometry x="500" y="375" width="120" height="50" as="geometry" />
        </mxCell>
        <mxCell id="64PbGBQ9wKXogZcfSaWZ-11" value="" style="rounded=0;whiteSpace=wrap;html=1;shadow=1;fontSize=16;align=center;fillColor=#f5f5f5;strokeColor=#666666;fontColor=#333333;" vertex="1" parent="64PbGBQ9wKXogZcfSaWZ-1">
          <mxGeometry x="670" y="350" width="520" height="100" as="geometry" />
        </mxCell>
        <mxCell id="64PbGBQ9wKXogZcfSaWZ-12" value="{ id: &#39;15ji&#39;, content: &#39;informative&#39; }" style="rounded=0;whiteSpace=wrap;html=1;shadow=1;fontSize=16;align=center;fillColor=#dae8fc;strokeColor=#6c8ebf;" vertex="1" parent="64PbGBQ9wKXogZcfSaWZ-1">
          <mxGeometry x="680" y="377.5" width="240" height="45" as="geometry" />
        </mxCell>
        <mxCell id="64PbGBQ9wKXogZcfSaWZ-13" value="{ id: &#39;43iji&#39;, content: &#39;yes&#39; }" style="rounded=0;whiteSpace=wrap;html=1;shadow=1;fontSize=16;align=center;fillColor=#dae8fc;strokeColor=#6c8ebf;" vertex="1" parent="64PbGBQ9wKXogZcfSaWZ-1">
          <mxGeometry x="940" y="377.5" width="240" height="45" as="geometry" />
        </mxCell>
        <mxCell id="64PbGBQ9wKXogZcfSaWZ-15" value="commentsByPostId" style="text;html=1;strokeColor=none;fillColor=none;align=center;verticalAlign=middle;whiteSpace=wrap;rounded=0;shadow=1;fontSize=22;fontStyle=1" vertex="1" parent="64PbGBQ9wKXogZcfSaWZ-1">
          <mxGeometry x="830" y="190" width="40" height="20" as="geometry" />
        </mxCell>
        <mxCell id="64PbGBQ9wKXogZcfSaWZ-16" value="" style="shape=curlyBracket;whiteSpace=wrap;html=1;rounded=1;shadow=0;fontSize=22;align=center;rotation=-90;" vertex="1" parent="64PbGBQ9wKXogZcfSaWZ-1">
          <mxGeometry x="550" y="380" width="20" height="120" as="geometry" />
        </mxCell>
        <mxCell id="64PbGBQ9wKXogZcfSaWZ-17" value="ID of a post" style="text;html=1;strokeColor=none;fillColor=none;align=center;verticalAlign=middle;whiteSpace=wrap;rounded=0;shadow=1;fontSize=17;" vertex="1" parent="64PbGBQ9wKXogZcfSaWZ-1">
          <mxGeometry x="510" y="450" width="100" height="20" as="geometry" />
        </mxCell>
        <mxCell id="64PbGBQ9wKXogZcfSaWZ-18" value="" style="shape=curlyBracket;whiteSpace=wrap;html=1;rounded=1;shadow=0;fontSize=22;align=center;rotation=-90;" vertex="1" parent="64PbGBQ9wKXogZcfSaWZ-1">
          <mxGeometry x="788.75" y="193.75" width="20" height="237.5" as="geometry" />
        </mxCell>
        <mxCell id="64PbGBQ9wKXogZcfSaWZ-19" value="Comment" style="text;html=1;strokeColor=none;fillColor=none;align=center;verticalAlign=middle;whiteSpace=wrap;rounded=0;shadow=1;fontSize=17;" vertex="1" parent="64PbGBQ9wKXogZcfSaWZ-1">
          <mxGeometry x="750" y="325" width="100" height="20" as="geometry" />
        </mxCell>
        <mxCell id="64PbGBQ9wKXogZcfSaWZ-20" value="" style="shape=curlyBracket;whiteSpace=wrap;html=1;rounded=1;shadow=0;fontSize=22;align=center;rotation=-90;" vertex="1" parent="64PbGBQ9wKXogZcfSaWZ-1">
          <mxGeometry x="918.75" y="206.25" width="20" height="515" as="geometry" />
        </mxCell>
        <mxCell id="64PbGBQ9wKXogZcfSaWZ-21" value="array of comments" style="text;html=1;strokeColor=none;fillColor=none;align=center;verticalAlign=middle;whiteSpace=wrap;rounded=0;shadow=1;fontSize=17;" vertex="1" parent="64PbGBQ9wKXogZcfSaWZ-1">
          <mxGeometry x="828.13" y="470" width="201.25" height="20" as="geometry" />
        </mxCell>
      </root>
    </mxGraphModel>
  </diagram>
  <diagram id="sZSpfVD9DbQJMYhZIPTs" name="11 - react">
    <mxGraphModel dx="715" dy="352" grid="1" gridSize="10" guides="1" tooltips="1" connect="1" arrows="1" fold="1" page="1" pageScale="1" pageWidth="1920" pageHeight="1200" math="0" shadow="0">
      <root>
        <mxCell id="HL-IbBgbiLmgce4d4wlo-0" />
        <mxCell id="HL-IbBgbiLmgce4d4wlo-1" parent="HL-IbBgbiLmgce4d4wlo-0" />
        <mxCell id="HL-IbBgbiLmgce4d4wlo-2" value="If you don&#39;t know React, or don&#39;t want to work with it, no problem! Skip ahead a few videos.&amp;nbsp; Completed React code is provided in a zip file" style="rounded=0;whiteSpace=wrap;html=1;shadow=0;fontSize=17;align=center;fillColor=#dae8fc;strokeColor=#6c8ebf;" vertex="1" parent="HL-IbBgbiLmgce4d4wlo-1">
          <mxGeometry x="550" y="300" width="460" height="90" as="geometry" />
        </mxCell>
        <mxCell id="HL-IbBgbiLmgce4d4wlo-3" value="&lt;i&gt;Note&lt;/i&gt;" style="text;html=1;strokeColor=none;fillColor=none;align=center;verticalAlign=middle;whiteSpace=wrap;rounded=0;shadow=0;fontSize=17;" vertex="1" parent="HL-IbBgbiLmgce4d4wlo-1">
          <mxGeometry x="760" y="277" width="40" height="20" as="geometry" />
        </mxCell>
      </root>
    </mxGraphModel>
  </diagram>
  <diagram id="9bbvloP_d1QuuzNVwJce" name="12 - react">
    <mxGraphModel dx="1036" dy="510" grid="1" gridSize="10" guides="1" tooltips="1" connect="1" arrows="1" fold="1" page="1" pageScale="1" pageWidth="1920" pageHeight="1200" math="0" shadow="0">
      <root>
        <mxCell id="Gbj9uzn2alaUHWSc6TSh-0" />
        <mxCell id="Gbj9uzn2alaUHWSc6TSh-1" parent="Gbj9uzn2alaUHWSc6TSh-0" />
        <mxCell id="FyZSntLKUEFBcvWk4KFO-0" value="" style="strokeWidth=1;shadow=0;dashed=0;align=center;html=1;shape=mxgraph.mockup.containers.browserWindow;rSize=0;strokeColor=#666666;strokeColor2=#008cff;strokeColor3=#c4c4c4;mainText=,;recursiveResize=0;" vertex="1" parent="Gbj9uzn2alaUHWSc6TSh-1">
          <mxGeometry x="400" y="200" width="480" height="430" as="geometry" />
        </mxCell>
        <mxCell id="FyZSntLKUEFBcvWk4KFO-1" value="Page 1" style="strokeWidth=1;shadow=0;dashed=0;align=center;html=1;shape=mxgraph.mockup.containers.anchor;fontSize=17;fontColor=#666666;align=left;" vertex="1" parent="FyZSntLKUEFBcvWk4KFO-0">
          <mxGeometry x="60" y="12" width="110" height="26" as="geometry" />
        </mxCell>
        <mxCell id="FyZSntLKUEFBcvWk4KFO-2" value="https://www.draw.io" style="strokeWidth=1;shadow=0;dashed=0;align=center;html=1;shape=mxgraph.mockup.containers.anchor;rSize=0;fontSize=17;fontColor=#666666;align=left;" vertex="1" parent="FyZSntLKUEFBcvWk4KFO-0">
          <mxGeometry x="130" y="60" width="250" height="26" as="geometry" />
        </mxCell>
        <mxCell id="FyZSntLKUEFBcvWk4KFO-3" value="Create Post" style="text;html=1;strokeColor=none;fillColor=none;align=left;verticalAlign=middle;whiteSpace=wrap;rounded=0;fontSize=28;" vertex="1" parent="FyZSntLKUEFBcvWk4KFO-0">
          <mxGeometry x="20" y="120" width="200" height="20" as="geometry" />
        </mxCell>
        <mxCell id="FyZSntLKUEFBcvWk4KFO-4" value="" style="whiteSpace=wrap;html=1;fontSize=28;align=left;" vertex="1" parent="FyZSntLKUEFBcvWk4KFO-0">
          <mxGeometry x="40" y="175" width="180" height="25" as="geometry" />
        </mxCell>
        <mxCell id="FyZSntLKUEFBcvWk4KFO-5" value="Title" style="text;html=1;strokeColor=none;fillColor=none;align=left;verticalAlign=middle;whiteSpace=wrap;rounded=0;fontSize=18;" vertex="1" parent="FyZSntLKUEFBcvWk4KFO-0">
          <mxGeometry x="40" y="150" width="200" height="20" as="geometry" />
        </mxCell>
        <mxCell id="FyZSntLKUEFBcvWk4KFO-6" value="Submit" style="whiteSpace=wrap;html=1;fontSize=16;align=center;rounded=1;" vertex="1" parent="FyZSntLKUEFBcvWk4KFO-0">
          <mxGeometry x="40" y="210" width="80" height="25" as="geometry" />
        </mxCell>
        <mxCell id="FyZSntLKUEFBcvWk4KFO-7" value="" style="endArrow=none;html=1;fontSize=16;" edge="1" parent="FyZSntLKUEFBcvWk4KFO-0">
          <mxGeometry width="50" height="50" relative="1" as="geometry">
            <mxPoint x="20" y="240" as="sourcePoint" />
            <mxPoint x="440" y="240" as="targetPoint" />
          </mxGeometry>
        </mxCell>
        <mxCell id="FyZSntLKUEFBcvWk4KFO-8" value="" style="rounded=0;whiteSpace=wrap;html=1;fontSize=16;align=center;fillColor=#dae8fc;strokeColor=#6c8ebf;" vertex="1" parent="FyZSntLKUEFBcvWk4KFO-0">
          <mxGeometry x="25" y="250" width="215" height="170" as="geometry" />
        </mxCell>
        <mxCell id="FyZSntLKUEFBcvWk4KFO-9" value="My Post" style="text;html=1;strokeColor=none;fillColor=none;align=left;verticalAlign=middle;whiteSpace=wrap;rounded=0;fontSize=28;" vertex="1" parent="FyZSntLKUEFBcvWk4KFO-0">
          <mxGeometry x="30" y="260" width="200" height="20" as="geometry" />
        </mxCell>
        <mxCell id="FyZSntLKUEFBcvWk4KFO-10" value="&lt;i&gt;1 comments&lt;/i&gt;" style="text;html=1;strokeColor=none;fillColor=none;align=center;verticalAlign=middle;whiteSpace=wrap;rounded=0;fontSize=16;" vertex="1" parent="FyZSntLKUEFBcvWk4KFO-0">
          <mxGeometry x="30" y="285" width="100" height="20" as="geometry" />
        </mxCell>
        <mxCell id="FyZSntLKUEFBcvWk4KFO-11" value="&lt;ul&gt;&lt;li&gt;Im a comment!&lt;/li&gt;&lt;/ul&gt;" style="text;html=1;strokeColor=none;fillColor=none;align=left;verticalAlign=middle;whiteSpace=wrap;rounded=0;fontSize=18;" vertex="1" parent="FyZSntLKUEFBcvWk4KFO-0">
          <mxGeometry x="40" y="310" width="200" height="20" as="geometry" />
        </mxCell>
        <mxCell id="FyZSntLKUEFBcvWk4KFO-12" value="" style="whiteSpace=wrap;html=1;fontSize=28;align=left;" vertex="1" parent="FyZSntLKUEFBcvWk4KFO-0">
          <mxGeometry x="32.5" y="359" width="180" height="25" as="geometry" />
        </mxCell>
        <mxCell id="FyZSntLKUEFBcvWk4KFO-13" value="Comment" style="text;html=1;strokeColor=none;fillColor=none;align=left;verticalAlign=middle;whiteSpace=wrap;rounded=0;fontSize=15;" vertex="1" parent="FyZSntLKUEFBcvWk4KFO-0">
          <mxGeometry x="32.5" y="340" width="200" height="20" as="geometry" />
        </mxCell>
        <mxCell id="FyZSntLKUEFBcvWk4KFO-14" value="Submit" style="whiteSpace=wrap;html=1;fontSize=16;align=center;rounded=1;" vertex="1" parent="FyZSntLKUEFBcvWk4KFO-0">
          <mxGeometry x="32.5" y="388" width="80" height="25" as="geometry" />
        </mxCell>
        <mxCell id="FyZSntLKUEFBcvWk4KFO-15" value="" style="rounded=0;whiteSpace=wrap;html=1;fontSize=16;align=center;fillColor=#dae8fc;strokeColor=#6c8ebf;" vertex="1" parent="FyZSntLKUEFBcvWk4KFO-0">
          <mxGeometry x="250" y="250" width="215" height="170" as="geometry" />
        </mxCell>
        <mxCell id="FyZSntLKUEFBcvWk4KFO-16" value="Post #2" style="text;html=1;strokeColor=none;fillColor=none;align=left;verticalAlign=middle;whiteSpace=wrap;rounded=0;fontSize=28;" vertex="1" parent="FyZSntLKUEFBcvWk4KFO-0">
          <mxGeometry x="255" y="260" width="200" height="20" as="geometry" />
        </mxCell>
        <mxCell id="FyZSntLKUEFBcvWk4KFO-17" value="&lt;i&gt;1 comments&lt;/i&gt;" style="text;html=1;strokeColor=none;fillColor=none;align=center;verticalAlign=middle;whiteSpace=wrap;rounded=0;fontSize=16;" vertex="1" parent="FyZSntLKUEFBcvWk4KFO-0">
          <mxGeometry x="255" y="285" width="100" height="20" as="geometry" />
        </mxCell>
        <mxCell id="FyZSntLKUEFBcvWk4KFO-18" value="&lt;ul&gt;&lt;li&gt;Im a comment!&lt;/li&gt;&lt;/ul&gt;" style="text;html=1;strokeColor=none;fillColor=none;align=left;verticalAlign=middle;whiteSpace=wrap;rounded=0;fontSize=18;" vertex="1" parent="FyZSntLKUEFBcvWk4KFO-0">
          <mxGeometry x="265" y="310" width="165" height="20" as="geometry" />
        </mxCell>
        <mxCell id="FyZSntLKUEFBcvWk4KFO-19" value="" style="whiteSpace=wrap;html=1;fontSize=28;align=left;" vertex="1" parent="FyZSntLKUEFBcvWk4KFO-0">
          <mxGeometry x="257.5" y="359" width="180" height="25" as="geometry" />
        </mxCell>
        <mxCell id="FyZSntLKUEFBcvWk4KFO-20" value="Comment" style="text;html=1;strokeColor=none;fillColor=none;align=left;verticalAlign=middle;whiteSpace=wrap;rounded=0;fontSize=15;" vertex="1" parent="FyZSntLKUEFBcvWk4KFO-0">
          <mxGeometry x="257.5" y="340" width="200" height="20" as="geometry" />
        </mxCell>
        <mxCell id="FyZSntLKUEFBcvWk4KFO-21" value="Submit" style="whiteSpace=wrap;html=1;fontSize=16;align=center;rounded=1;" vertex="1" parent="FyZSntLKUEFBcvWk4KFO-0">
          <mxGeometry x="257.5" y="388" width="80" height="25" as="geometry" />
        </mxCell>
        <mxCell id="FyZSntLKUEFBcvWk4KFO-27" style="edgeStyle=orthogonalEdgeStyle;rounded=0;orthogonalLoop=1;jettySize=auto;html=1;exitX=0.5;exitY=1;exitDx=0;exitDy=0;fontSize=22;" edge="1" parent="Gbj9uzn2alaUHWSc6TSh-1" source="FyZSntLKUEFBcvWk4KFO-22" target="FyZSntLKUEFBcvWk4KFO-24">
          <mxGeometry relative="1" as="geometry" />
        </mxCell>
        <mxCell id="FyZSntLKUEFBcvWk4KFO-28" style="edgeStyle=orthogonalEdgeStyle;rounded=0;orthogonalLoop=1;jettySize=auto;html=1;exitX=0.5;exitY=1;exitDx=0;exitDy=0;fontSize=22;" edge="1" parent="Gbj9uzn2alaUHWSc6TSh-1" source="FyZSntLKUEFBcvWk4KFO-22" target="FyZSntLKUEFBcvWk4KFO-23">
          <mxGeometry relative="1" as="geometry" />
        </mxCell>
        <mxCell id="FyZSntLKUEFBcvWk4KFO-22" value="App" style="rounded=0;whiteSpace=wrap;html=1;shadow=0;fontSize=22;align=center;fillColor=#ffe6cc;strokeColor=#d79b00;fontStyle=1" vertex="1" parent="Gbj9uzn2alaUHWSc6TSh-1">
          <mxGeometry x="1120" y="260" width="120" height="40" as="geometry" />
        </mxCell>
        <mxCell id="FyZSntLKUEFBcvWk4KFO-23" value="PostCreate" style="rounded=0;whiteSpace=wrap;html=1;shadow=0;fontSize=22;align=center;fillColor=#ffe6cc;strokeColor=#d79b00;fontStyle=1" vertex="1" parent="Gbj9uzn2alaUHWSc6TSh-1">
          <mxGeometry x="1200" y="350" width="170" height="40" as="geometry" />
        </mxCell>
        <mxCell id="FyZSntLKUEFBcvWk4KFO-29" style="edgeStyle=orthogonalEdgeStyle;rounded=0;orthogonalLoop=1;jettySize=auto;html=1;exitX=0.5;exitY=1;exitDx=0;exitDy=0;fontSize=22;" edge="1" parent="Gbj9uzn2alaUHWSc6TSh-1" source="FyZSntLKUEFBcvWk4KFO-24" target="FyZSntLKUEFBcvWk4KFO-25">
          <mxGeometry relative="1" as="geometry" />
        </mxCell>
        <mxCell id="FyZSntLKUEFBcvWk4KFO-30" style="edgeStyle=orthogonalEdgeStyle;rounded=0;orthogonalLoop=1;jettySize=auto;html=1;exitX=0.5;exitY=1;exitDx=0;exitDy=0;fontSize=22;" edge="1" parent="Gbj9uzn2alaUHWSc6TSh-1" source="FyZSntLKUEFBcvWk4KFO-24" target="FyZSntLKUEFBcvWk4KFO-26">
          <mxGeometry relative="1" as="geometry" />
        </mxCell>
        <mxCell id="FyZSntLKUEFBcvWk4KFO-24" value="PostList" style="rounded=0;whiteSpace=wrap;html=1;shadow=0;fontSize=22;align=center;fillColor=#ffe6cc;strokeColor=#d79b00;fontStyle=1" vertex="1" parent="Gbj9uzn2alaUHWSc6TSh-1">
          <mxGeometry x="1000" y="350" width="170" height="40" as="geometry" />
        </mxCell>
        <mxCell id="FyZSntLKUEFBcvWk4KFO-25" value="CommentList" style="rounded=0;whiteSpace=wrap;html=1;shadow=0;fontSize=22;align=center;fillColor=#ffe6cc;strokeColor=#d79b00;fontStyle=1" vertex="1" parent="Gbj9uzn2alaUHWSc6TSh-1">
          <mxGeometry x="910" y="450" width="170" height="40" as="geometry" />
        </mxCell>
        <mxCell id="FyZSntLKUEFBcvWk4KFO-26" value="CommentCreate" style="rounded=0;whiteSpace=wrap;html=1;shadow=0;fontSize=22;align=center;fillColor=#ffe6cc;strokeColor=#d79b00;fontStyle=1" vertex="1" parent="Gbj9uzn2alaUHWSc6TSh-1">
          <mxGeometry x="1090" y="450" width="190" height="40" as="geometry" />
        </mxCell>
      </root>
    </mxGraphModel>
  </diagram>
  <diagram id="XU5nSHOjDvfzMK3LGGBp" name="20 - note">
    <mxGraphModel dx="733" dy="360" grid="1" gridSize="10" guides="1" tooltips="1" connect="1" arrows="1" fold="1" page="1" pageScale="1" pageWidth="1920" pageHeight="1200" math="0" shadow="0">
      <root>
        <mxCell id="gLz8SrReFbbJrX0S5V7a-0" />
        <mxCell id="gLz8SrReFbbJrX0S5V7a-1" parent="gLz8SrReFbbJrX0S5V7a-0" />
        <mxCell id="sIpE_psgFj-QLHWLFp6n-2" style="edgeStyle=orthogonalEdgeStyle;rounded=0;orthogonalLoop=1;jettySize=auto;html=1;exitX=0.5;exitY=1;exitDx=0;exitDy=0;fontSize=16;" edge="1" parent="gLz8SrReFbbJrX0S5V7a-1" source="sIpE_psgFj-QLHWLFp6n-0" target="sIpE_psgFj-QLHWLFp6n-1">
          <mxGeometry relative="1" as="geometry" />
        </mxCell>
        <mxCell id="sIpE_psgFj-QLHWLFp6n-0" value="Downloaded the completed code from the last lecture?" style="rounded=0;whiteSpace=wrap;html=1;shadow=0;fontSize=22;align=center;fillColor=#dae8fc;strokeColor=#6c8ebf;fontStyle=1" vertex="1" parent="gLz8SrReFbbJrX0S5V7a-1">
          <mxGeometry x="390" y="210" width="400" height="100" as="geometry" />
        </mxCell>
        <mxCell id="sIpE_psgFj-QLHWLFp6n-4" style="edgeStyle=orthogonalEdgeStyle;rounded=0;orthogonalLoop=1;jettySize=auto;html=1;exitX=0.5;exitY=1;exitDx=0;exitDy=0;fontSize=16;" edge="1" parent="gLz8SrReFbbJrX0S5V7a-1" source="sIpE_psgFj-QLHWLFp6n-1" target="sIpE_psgFj-QLHWLFp6n-3">
          <mxGeometry relative="1" as="geometry" />
        </mxCell>
        <mxCell id="sIpE_psgFj-QLHWLFp6n-1" value="Make sure you overwrite &lt;i&gt;all of your code&lt;/i&gt;&amp;nbsp;with the code from the zip." style="rounded=0;whiteSpace=wrap;html=1;shadow=0;fontSize=22;align=center;fillColor=#dae8fc;strokeColor=#6c8ebf;fontStyle=1" vertex="1" parent="gLz8SrReFbbJrX0S5V7a-1">
          <mxGeometry x="390" y="340" width="400" height="100" as="geometry" />
        </mxCell>
        <mxCell id="sIpE_psgFj-QLHWLFp6n-3" value="Make sure you rerun &#39;npm install&#39; in the &#39;posts&#39; and &#39;comments&#39; directories" style="rounded=0;whiteSpace=wrap;html=1;shadow=0;fontSize=22;align=center;fillColor=#dae8fc;strokeColor=#6c8ebf;fontStyle=1" vertex="1" parent="gLz8SrReFbbJrX0S5V7a-1">
          <mxGeometry x="390" y="470" width="400" height="100" as="geometry" />
        </mxCell>
      </root>
    </mxGraphModel>
  </diagram>
  <diagram id="QApLrPDpeSpSJsOXq0Aq" name="13 - reqs">
    <mxGraphModel dx="1036" dy="510" grid="1" gridSize="10" guides="1" tooltips="1" connect="1" arrows="1" fold="1" page="1" pageScale="1" pageWidth="1920" pageHeight="1200" math="0" shadow="0">
      <root>
        <mxCell id="fCKlBjt7gSySCiA7m5yZ-0" />
        <mxCell id="fCKlBjt7gSySCiA7m5yZ-1" parent="fCKlBjt7gSySCiA7m5yZ-0" />
        <mxCell id="kj4PZy4xUojEkYDKaot1-10" value="" style="rounded=0;whiteSpace=wrap;html=1;shadow=0;fontSize=22;align=center;fillColor=#f5f5f5;strokeColor=#666666;fontStyle=1;fontColor=#333333;" vertex="1" parent="fCKlBjt7gSySCiA7m5yZ-1">
          <mxGeometry x="650" y="135" width="180" height="465" as="geometry" />
        </mxCell>
        <mxCell id="kj4PZy4xUojEkYDKaot1-11" style="edgeStyle=orthogonalEdgeStyle;rounded=0;orthogonalLoop=1;jettySize=auto;html=1;exitX=1;exitY=0.5;exitDx=0;exitDy=0;fontSize=22;" edge="1" parent="fCKlBjt7gSySCiA7m5yZ-1" source="kj4PZy4xUojEkYDKaot1-0" target="kj4PZy4xUojEkYDKaot1-10">
          <mxGeometry relative="1" as="geometry" />
        </mxCell>
        <mxCell id="kj4PZy4xUojEkYDKaot1-0" value="GET /posts/" style="rounded=0;whiteSpace=wrap;html=1;shadow=0;fontSize=22;align=center;fillColor=#e1d5e7;strokeColor=#9673a6;fontStyle=1" vertex="1" parent="fCKlBjt7gSySCiA7m5yZ-1">
          <mxGeometry x="420" y="332.5" width="180" height="70" as="geometry" />
        </mxCell>
        <mxCell id="kj4PZy4xUojEkYDKaot1-22" style="edgeStyle=orthogonalEdgeStyle;rounded=0;orthogonalLoop=1;jettySize=auto;html=1;exitX=1;exitY=0.5;exitDx=0;exitDy=0;fontSize=22;" edge="1" parent="fCKlBjt7gSySCiA7m5yZ-1" source="kj4PZy4xUojEkYDKaot1-1" target="kj4PZy4xUojEkYDKaot1-13">
          <mxGeometry relative="1" as="geometry" />
        </mxCell>
        <mxCell id="kj4PZy4xUojEkYDKaot1-1" value="&lt;i&gt;post&lt;/i&gt;" style="rounded=0;whiteSpace=wrap;html=1;shadow=0;fontSize=22;align=center;fontStyle=0" vertex="1" parent="fCKlBjt7gSySCiA7m5yZ-1">
          <mxGeometry x="670" y="200" width="140" height="40" as="geometry" />
        </mxCell>
        <mxCell id="kj4PZy4xUojEkYDKaot1-23" style="edgeStyle=orthogonalEdgeStyle;rounded=0;orthogonalLoop=1;jettySize=auto;html=1;exitX=1;exitY=0.5;exitDx=0;exitDy=0;fontSize=22;" edge="1" parent="fCKlBjt7gSySCiA7m5yZ-1" source="kj4PZy4xUojEkYDKaot1-2" target="kj4PZy4xUojEkYDKaot1-14">
          <mxGeometry relative="1" as="geometry" />
        </mxCell>
        <mxCell id="kj4PZy4xUojEkYDKaot1-2" value="&lt;i&gt;post&lt;/i&gt;" style="rounded=0;whiteSpace=wrap;html=1;shadow=0;fontSize=22;align=center;fontStyle=0" vertex="1" parent="fCKlBjt7gSySCiA7m5yZ-1">
          <mxGeometry x="670" y="250" width="140" height="40" as="geometry" />
        </mxCell>
        <mxCell id="kj4PZy4xUojEkYDKaot1-24" style="edgeStyle=orthogonalEdgeStyle;rounded=0;orthogonalLoop=1;jettySize=auto;html=1;exitX=1;exitY=0.5;exitDx=0;exitDy=0;fontSize=22;" edge="1" parent="fCKlBjt7gSySCiA7m5yZ-1" source="kj4PZy4xUojEkYDKaot1-3" target="kj4PZy4xUojEkYDKaot1-15">
          <mxGeometry relative="1" as="geometry" />
        </mxCell>
        <mxCell id="kj4PZy4xUojEkYDKaot1-3" value="&lt;i&gt;post&lt;/i&gt;" style="rounded=0;whiteSpace=wrap;html=1;shadow=0;fontSize=22;align=center;fontStyle=0" vertex="1" parent="fCKlBjt7gSySCiA7m5yZ-1">
          <mxGeometry x="670" y="300" width="140" height="40" as="geometry" />
        </mxCell>
        <mxCell id="kj4PZy4xUojEkYDKaot1-26" style="edgeStyle=orthogonalEdgeStyle;rounded=0;orthogonalLoop=1;jettySize=auto;html=1;exitX=1;exitY=0.5;exitDx=0;exitDy=0;fontSize=22;" edge="1" parent="fCKlBjt7gSySCiA7m5yZ-1" source="kj4PZy4xUojEkYDKaot1-4" target="kj4PZy4xUojEkYDKaot1-17">
          <mxGeometry relative="1" as="geometry" />
        </mxCell>
        <mxCell id="kj4PZy4xUojEkYDKaot1-4" value="&lt;i&gt;post&lt;/i&gt;" style="rounded=0;whiteSpace=wrap;html=1;shadow=0;fontSize=22;align=center;fontStyle=0" vertex="1" parent="fCKlBjt7gSySCiA7m5yZ-1">
          <mxGeometry x="670" y="400" width="140" height="40" as="geometry" />
        </mxCell>
        <mxCell id="kj4PZy4xUojEkYDKaot1-25" style="edgeStyle=orthogonalEdgeStyle;rounded=0;orthogonalLoop=1;jettySize=auto;html=1;exitX=1;exitY=0.5;exitDx=0;exitDy=0;fontSize=22;" edge="1" parent="fCKlBjt7gSySCiA7m5yZ-1" source="kj4PZy4xUojEkYDKaot1-5" target="kj4PZy4xUojEkYDKaot1-16">
          <mxGeometry relative="1" as="geometry" />
        </mxCell>
        <mxCell id="kj4PZy4xUojEkYDKaot1-5" value="&lt;i&gt;post&lt;/i&gt;" style="rounded=0;whiteSpace=wrap;html=1;shadow=0;fontSize=22;align=center;fontStyle=0" vertex="1" parent="fCKlBjt7gSySCiA7m5yZ-1">
          <mxGeometry x="670" y="350" width="140" height="40" as="geometry" />
        </mxCell>
        <mxCell id="kj4PZy4xUojEkYDKaot1-27" style="edgeStyle=orthogonalEdgeStyle;rounded=0;orthogonalLoop=1;jettySize=auto;html=1;exitX=1;exitY=0.5;exitDx=0;exitDy=0;fontSize=22;" edge="1" parent="fCKlBjt7gSySCiA7m5yZ-1" source="kj4PZy4xUojEkYDKaot1-6" target="kj4PZy4xUojEkYDKaot1-18">
          <mxGeometry relative="1" as="geometry" />
        </mxCell>
        <mxCell id="kj4PZy4xUojEkYDKaot1-6" value="&lt;i&gt;post&lt;/i&gt;" style="rounded=0;whiteSpace=wrap;html=1;shadow=0;fontSize=22;align=center;fontStyle=0" vertex="1" parent="fCKlBjt7gSySCiA7m5yZ-1">
          <mxGeometry x="670" y="450" width="140" height="40" as="geometry" />
        </mxCell>
        <mxCell id="kj4PZy4xUojEkYDKaot1-28" style="edgeStyle=orthogonalEdgeStyle;rounded=0;orthogonalLoop=1;jettySize=auto;html=1;exitX=1;exitY=0.5;exitDx=0;exitDy=0;fontSize=22;" edge="1" parent="fCKlBjt7gSySCiA7m5yZ-1" source="kj4PZy4xUojEkYDKaot1-7" target="kj4PZy4xUojEkYDKaot1-19">
          <mxGeometry relative="1" as="geometry" />
        </mxCell>
        <mxCell id="kj4PZy4xUojEkYDKaot1-7" value="&lt;i&gt;post&lt;/i&gt;" style="rounded=0;whiteSpace=wrap;html=1;shadow=0;fontSize=22;align=center;fontStyle=0" vertex="1" parent="fCKlBjt7gSySCiA7m5yZ-1">
          <mxGeometry x="670" y="500" width="140" height="40" as="geometry" />
        </mxCell>
        <mxCell id="kj4PZy4xUojEkYDKaot1-29" style="edgeStyle=orthogonalEdgeStyle;rounded=0;orthogonalLoop=1;jettySize=auto;html=1;exitX=1;exitY=0.5;exitDx=0;exitDy=0;fontSize=22;" edge="1" parent="fCKlBjt7gSySCiA7m5yZ-1" source="kj4PZy4xUojEkYDKaot1-8" target="kj4PZy4xUojEkYDKaot1-20">
          <mxGeometry relative="1" as="geometry" />
        </mxCell>
        <mxCell id="kj4PZy4xUojEkYDKaot1-8" value="&lt;i&gt;post&lt;/i&gt;" style="rounded=0;whiteSpace=wrap;html=1;shadow=0;fontSize=22;align=center;fontStyle=0" vertex="1" parent="fCKlBjt7gSySCiA7m5yZ-1">
          <mxGeometry x="670" y="550" width="140" height="40" as="geometry" />
        </mxCell>
        <mxCell id="kj4PZy4xUojEkYDKaot1-21" style="edgeStyle=orthogonalEdgeStyle;rounded=0;orthogonalLoop=1;jettySize=auto;html=1;exitX=1;exitY=0.5;exitDx=0;exitDy=0;fontSize=22;" edge="1" parent="fCKlBjt7gSySCiA7m5yZ-1" source="kj4PZy4xUojEkYDKaot1-9" target="kj4PZy4xUojEkYDKaot1-12">
          <mxGeometry relative="1" as="geometry" />
        </mxCell>
        <mxCell id="kj4PZy4xUojEkYDKaot1-9" value="&lt;i&gt;post&lt;/i&gt;" style="rounded=0;whiteSpace=wrap;html=1;shadow=0;fontSize=22;align=center;fontStyle=0" vertex="1" parent="fCKlBjt7gSySCiA7m5yZ-1">
          <mxGeometry x="670" y="150" width="140" height="40" as="geometry" />
        </mxCell>
        <mxCell id="kj4PZy4xUojEkYDKaot1-12" value="GET /posts/:id/comments" style="rounded=0;whiteSpace=wrap;html=1;shadow=0;fontSize=22;align=center;fillColor=#e1d5e7;strokeColor=#9673a6;fontStyle=1" vertex="1" parent="fCKlBjt7gSySCiA7m5yZ-1">
          <mxGeometry x="860" y="150" width="300" height="40" as="geometry" />
        </mxCell>
        <mxCell id="kj4PZy4xUojEkYDKaot1-13" value="GET /posts/:id/comments" style="rounded=0;whiteSpace=wrap;html=1;shadow=0;fontSize=22;align=center;fillColor=#e1d5e7;strokeColor=#9673a6;fontStyle=1" vertex="1" parent="fCKlBjt7gSySCiA7m5yZ-1">
          <mxGeometry x="860" y="200" width="300" height="40" as="geometry" />
        </mxCell>
        <mxCell id="kj4PZy4xUojEkYDKaot1-14" value="GET /posts/:id/comments" style="rounded=0;whiteSpace=wrap;html=1;shadow=0;fontSize=22;align=center;fillColor=#e1d5e7;strokeColor=#9673a6;fontStyle=1" vertex="1" parent="fCKlBjt7gSySCiA7m5yZ-1">
          <mxGeometry x="860" y="250" width="300" height="40" as="geometry" />
        </mxCell>
        <mxCell id="kj4PZy4xUojEkYDKaot1-15" value="GET /posts/:id/comments" style="rounded=0;whiteSpace=wrap;html=1;shadow=0;fontSize=22;align=center;fillColor=#e1d5e7;strokeColor=#9673a6;fontStyle=1" vertex="1" parent="fCKlBjt7gSySCiA7m5yZ-1">
          <mxGeometry x="860" y="300" width="300" height="40" as="geometry" />
        </mxCell>
        <mxCell id="kj4PZy4xUojEkYDKaot1-16" value="GET /posts/:id/comments" style="rounded=0;whiteSpace=wrap;html=1;shadow=0;fontSize=22;align=center;fillColor=#e1d5e7;strokeColor=#9673a6;fontStyle=1" vertex="1" parent="fCKlBjt7gSySCiA7m5yZ-1">
          <mxGeometry x="860" y="350" width="300" height="40" as="geometry" />
        </mxCell>
        <mxCell id="kj4PZy4xUojEkYDKaot1-17" value="GET /posts/:id/comments" style="rounded=0;whiteSpace=wrap;html=1;shadow=0;fontSize=22;align=center;fillColor=#e1d5e7;strokeColor=#9673a6;fontStyle=1" vertex="1" parent="fCKlBjt7gSySCiA7m5yZ-1">
          <mxGeometry x="860" y="400" width="300" height="40" as="geometry" />
        </mxCell>
        <mxCell id="kj4PZy4xUojEkYDKaot1-18" value="GET /posts/:id/comments" style="rounded=0;whiteSpace=wrap;html=1;shadow=0;fontSize=22;align=center;fillColor=#e1d5e7;strokeColor=#9673a6;fontStyle=1" vertex="1" parent="fCKlBjt7gSySCiA7m5yZ-1">
          <mxGeometry x="860" y="450" width="300" height="40" as="geometry" />
        </mxCell>
        <mxCell id="kj4PZy4xUojEkYDKaot1-19" value="GET /posts/:id/comments" style="rounded=0;whiteSpace=wrap;html=1;shadow=0;fontSize=22;align=center;fillColor=#e1d5e7;strokeColor=#9673a6;fontStyle=1" vertex="1" parent="fCKlBjt7gSySCiA7m5yZ-1">
          <mxGeometry x="860" y="500" width="300" height="40" as="geometry" />
        </mxCell>
        <mxCell id="kj4PZy4xUojEkYDKaot1-20" value="GET /posts/:id/comments" style="rounded=0;whiteSpace=wrap;html=1;shadow=0;fontSize=22;align=center;fillColor=#e1d5e7;strokeColor=#9673a6;fontStyle=1" vertex="1" parent="fCKlBjt7gSySCiA7m5yZ-1">
          <mxGeometry x="860" y="550" width="300" height="40" as="geometry" />
        </mxCell>
      </root>
    </mxGraphModel>
  </diagram>
  <diagram id="nugDdlcuZeJ7CaKLGbUW" name="14 - solutions">
    <mxGraphModel dx="1036" dy="510" grid="1" gridSize="10" guides="1" tooltips="1" connect="1" arrows="1" fold="1" page="1" pageScale="1" pageWidth="1920" pageHeight="1200" math="0" shadow="0">
      <root>
        <mxCell id="azp1xojfba5QtHumGdVJ-0" />
        <mxCell id="azp1xojfba5QtHumGdVJ-1" parent="azp1xojfba5QtHumGdVJ-0" />
        <mxCell id="l2dlZWB9mxtDtZFE7wLC-0" value="Monolith!" style="rounded=0;whiteSpace=wrap;html=1;shadow=1;fontSize=21;align=center;fillColor=#f5f5f5;strokeColor=#666666;fontColor=#333333;fontStyle=1" vertex="1" parent="azp1xojfba5QtHumGdVJ-1">
          <mxGeometry x="970" y="190" width="300" height="40" as="geometry" />
        </mxCell>
        <mxCell id="l2dlZWB9mxtDtZFE7wLC-1" value="" style="rounded=0;whiteSpace=wrap;html=1;shadow=1;fontSize=17;align=left;fillColor=#f5f5f5;strokeColor=#666666;fontColor=#333333;" vertex="1" parent="azp1xojfba5QtHumGdVJ-1">
          <mxGeometry x="970" y="230" width="300" height="210" as="geometry" />
        </mxCell>
        <mxCell id="l2dlZWB9mxtDtZFE7wLC-2" value="Posts Feature" style="whiteSpace=wrap;html=1;rounded=0;shadow=1;fontSize=25;align=center;fillColor=#ffe6cc;strokeColor=#d79b00;fontStyle=1" vertex="1" parent="azp1xojfba5QtHumGdVJ-1">
          <mxGeometry x="985" y="245" width="265" height="80" as="geometry" />
        </mxCell>
        <mxCell id="l2dlZWB9mxtDtZFE7wLC-10" value="Comments Feature" style="whiteSpace=wrap;html=1;rounded=0;shadow=1;fontSize=25;align=center;fillColor=#ffe6cc;strokeColor=#d79b00;fontStyle=1" vertex="1" parent="azp1xojfba5QtHumGdVJ-1">
          <mxGeometry x="985" y="340" width="265" height="80" as="geometry" />
        </mxCell>
        <mxCell id="l2dlZWB9mxtDtZFE7wLC-11" value="" style="strokeWidth=1;shadow=0;dashed=0;align=center;html=1;shape=mxgraph.mockup.containers.browserWindow;rSize=0;strokeColor=#666666;strokeColor2=#008cff;strokeColor3=#c4c4c4;mainText=,;recursiveResize=0;rounded=0;fontSize=22;" vertex="1" parent="azp1xojfba5QtHumGdVJ-1">
          <mxGeometry x="270" y="200" width="280" height="240" as="geometry" />
        </mxCell>
        <mxCell id="l2dlZWB9mxtDtZFE7wLC-12" value="Page 1" style="strokeWidth=1;shadow=0;dashed=0;align=center;html=1;shape=mxgraph.mockup.containers.anchor;fontSize=17;fontColor=#666666;align=left;" vertex="1" parent="l2dlZWB9mxtDtZFE7wLC-11">
          <mxGeometry x="60" y="12" width="110" height="26" as="geometry" />
        </mxCell>
        <mxCell id="l2dlZWB9mxtDtZFE7wLC-13" value="localhost" style="strokeWidth=1;shadow=0;dashed=0;align=center;html=1;shape=mxgraph.mockup.containers.anchor;rSize=0;fontSize=17;fontColor=#666666;align=left;" vertex="1" parent="l2dlZWB9mxtDtZFE7wLC-11">
          <mxGeometry x="130" y="60" width="250" height="26" as="geometry" />
        </mxCell>
        <mxCell id="l2dlZWB9mxtDtZFE7wLC-14" value="" style="endArrow=classic;html=1;fontSize=22;" edge="1" parent="azp1xojfba5QtHumGdVJ-1">
          <mxGeometry width="50" height="50" relative="1" as="geometry">
            <mxPoint x="550" y="320" as="sourcePoint" />
            <mxPoint x="970" y="319.65999999999997" as="targetPoint" />
          </mxGeometry>
        </mxCell>
        <mxCell id="l2dlZWB9mxtDtZFE7wLC-15" value="GET &lt;br&gt;/posts?comments=true" style="whiteSpace=wrap;html=1;rounded=0;shadow=1;fontSize=18;align=center;fillColor=#f8cecc;strokeColor=#b85450;fontStyle=1" vertex="1" parent="azp1xojfba5QtHumGdVJ-1">
          <mxGeometry x="650" y="270" width="240" height="50" as="geometry" />
        </mxCell>
        <mxCell id="l2dlZWB9mxtDtZFE7wLC-17" value="posts with embedded comments" style="whiteSpace=wrap;html=1;rounded=0;shadow=1;fontSize=18;align=center;fillColor=#f8cecc;strokeColor=#b85450;fontStyle=1" vertex="1" parent="azp1xojfba5QtHumGdVJ-1">
          <mxGeometry x="650" y="390" width="240" height="50" as="geometry" />
        </mxCell>
        <mxCell id="l2dlZWB9mxtDtZFE7wLC-19" value="" style="endArrow=classic;html=1;fontSize=22;" edge="1" parent="azp1xojfba5QtHumGdVJ-1">
          <mxGeometry width="50" height="50" relative="1" as="geometry">
            <mxPoint x="970" y="389.9999999999999" as="sourcePoint" />
            <mxPoint x="550" y="390.34000000000003" as="targetPoint" />
          </mxGeometry>
        </mxCell>
        <mxCell id="l2dlZWB9mxtDtZFE7wLC-20" value="&lt;i style=&quot;font-size: 27px;&quot;&gt;Easily solved with monoliths!&lt;/i&gt;" style="text;html=1;strokeColor=none;fillColor=none;align=center;verticalAlign=middle;whiteSpace=wrap;rounded=0;shadow=0;fontSize=27;fontStyle=1" vertex="1" parent="azp1xojfba5QtHumGdVJ-1">
          <mxGeometry x="610" y="120" width="320" height="20" as="geometry" />
        </mxCell>
      </root>
    </mxGraphModel>
  </diagram>
  <diagram id="_VY0fxGeLadwOFMEhlxY" name="15 - solution">
    <mxGraphModel dx="1113" dy="547" grid="1" gridSize="10" guides="1" tooltips="1" connect="1" arrows="1" fold="1" page="1" pageScale="1" pageWidth="1920" pageHeight="1200" math="0" shadow="0">
      <root>
        <mxCell id="_JFLtVyQIZX3coB8CAJt-0" />
        <mxCell id="_JFLtVyQIZX3coB8CAJt-1" parent="_JFLtVyQIZX3coB8CAJt-0" />
        <mxCell id="hx6DBDiVq3giXos-gdpB-1" value="" style="rounded=0;whiteSpace=wrap;html=1;shadow=1;fontSize=17;align=left;fillColor=#f5f5f5;strokeColor=#666666;fontColor=#333333;" vertex="1" parent="_JFLtVyQIZX3coB8CAJt-1">
          <mxGeometry x="945" y="140" width="300" height="370" as="geometry" />
        </mxCell>
        <mxCell id="CB-VTIw6GxeNnCjZP94c-0" value="Posts Service" style="rounded=0;whiteSpace=wrap;html=1;shadow=1;fontSize=21;align=center;fillColor=#f5f5f5;strokeColor=#666666;fontColor=#333333;fontStyle=1" vertex="1" parent="_JFLtVyQIZX3coB8CAJt-1">
          <mxGeometry x="980" y="160" width="230" height="40" as="geometry" />
        </mxCell>
        <mxCell id="CB-VTIw6GxeNnCjZP94c-1" value="" style="rounded=0;whiteSpace=wrap;html=1;shadow=1;fontSize=17;align=left;fillColor=#f5f5f5;strokeColor=#666666;fontColor=#333333;" vertex="1" parent="_JFLtVyQIZX3coB8CAJt-1">
          <mxGeometry x="980" y="200" width="230" height="110" as="geometry" />
        </mxCell>
        <mxCell id="CB-VTIw6GxeNnCjZP94c-2" value="Posts Feature" style="whiteSpace=wrap;html=1;rounded=0;shadow=1;fontSize=25;align=center;fillColor=#ffe6cc;strokeColor=#d79b00;fontStyle=1" vertex="1" parent="_JFLtVyQIZX3coB8CAJt-1">
          <mxGeometry x="1000" y="215" width="190" height="80" as="geometry" />
        </mxCell>
        <mxCell id="CB-VTIw6GxeNnCjZP94c-3" value="" style="strokeWidth=1;shadow=0;dashed=0;align=center;html=1;shape=mxgraph.mockup.containers.browserWindow;rSize=0;strokeColor=#666666;strokeColor2=#008cff;strokeColor3=#c4c4c4;mainText=,;recursiveResize=0;rounded=0;fontSize=17;" vertex="1" parent="_JFLtVyQIZX3coB8CAJt-1">
          <mxGeometry x="305" y="180" width="300" height="310" as="geometry" />
        </mxCell>
        <mxCell id="CB-VTIw6GxeNnCjZP94c-4" value="Page 1" style="strokeWidth=1;shadow=0;dashed=0;align=center;html=1;shape=mxgraph.mockup.containers.anchor;fontSize=17;fontColor=#666666;align=left;" vertex="1" parent="CB-VTIw6GxeNnCjZP94c-3">
          <mxGeometry x="60" y="12" width="110" height="26" as="geometry" />
        </mxCell>
        <mxCell id="CB-VTIw6GxeNnCjZP94c-5" value="localhost" style="strokeWidth=1;shadow=0;dashed=0;align=center;html=1;shape=mxgraph.mockup.containers.anchor;rSize=0;fontSize=17;fontColor=#666666;align=left;" vertex="1" parent="CB-VTIw6GxeNnCjZP94c-3">
          <mxGeometry x="130" y="60" width="250" height="26" as="geometry" />
        </mxCell>
        <mxCell id="CB-VTIw6GxeNnCjZP94c-11" value="Comments Service" style="rounded=0;whiteSpace=wrap;html=1;shadow=1;fontSize=21;align=center;fillColor=#f5f5f5;strokeColor=#666666;fontColor=#333333;fontStyle=1" vertex="1" parent="_JFLtVyQIZX3coB8CAJt-1">
          <mxGeometry x="980" y="340" width="230" height="40" as="geometry" />
        </mxCell>
        <mxCell id="CB-VTIw6GxeNnCjZP94c-12" value="" style="rounded=0;whiteSpace=wrap;html=1;shadow=1;fontSize=17;align=left;fillColor=#f5f5f5;strokeColor=#666666;fontColor=#333333;" vertex="1" parent="_JFLtVyQIZX3coB8CAJt-1">
          <mxGeometry x="980" y="380" width="230" height="110" as="geometry" />
        </mxCell>
        <mxCell id="CB-VTIw6GxeNnCjZP94c-13" value="Comments Feature" style="whiteSpace=wrap;html=1;rounded=0;shadow=1;fontSize=25;align=center;fillColor=#ffe6cc;strokeColor=#d79b00;fontStyle=1" vertex="1" parent="_JFLtVyQIZX3coB8CAJt-1">
          <mxGeometry x="995" y="395" width="200" height="80" as="geometry" />
        </mxCell>
        <mxCell id="hx6DBDiVq3giXos-gdpB-0" value="GET &lt;br&gt;/posts?comments=true" style="whiteSpace=wrap;html=1;rounded=0;shadow=1;fontSize=18;align=center;fillColor=#f8cecc;strokeColor=#b85450;fontStyle=1" vertex="1" parent="_JFLtVyQIZX3coB8CAJt-1">
          <mxGeometry x="650" y="280" width="240" height="50" as="geometry" />
        </mxCell>
        <mxCell id="hx6DBDiVq3giXos-gdpB-2" value="" style="endArrow=classic;html=1;fontSize=27;" edge="1" parent="_JFLtVyQIZX3coB8CAJt-1">
          <mxGeometry width="50" height="50" relative="1" as="geometry">
            <mxPoint x="605" y="330" as="sourcePoint" />
            <mxPoint x="945" y="330" as="targetPoint" />
          </mxGeometry>
        </mxCell>
        <mxCell id="hx6DBDiVq3giXos-gdpB-3" value="" style="endArrow=classic;html=1;fontSize=27;" edge="1" parent="_JFLtVyQIZX3coB8CAJt-1">
          <mxGeometry width="50" height="50" relative="1" as="geometry">
            <mxPoint x="945" y="410.0000000000001" as="sourcePoint" />
            <mxPoint x="605.0000000000002" y="410.0000000000001" as="targetPoint" />
          </mxGeometry>
        </mxCell>
        <mxCell id="hx6DBDiVq3giXos-gdpB-4" value="Posts with embedded comments" style="whiteSpace=wrap;html=1;rounded=0;shadow=1;fontSize=18;align=center;fillColor=#f8cecc;strokeColor=#b85450;fontStyle=1" vertex="1" parent="_JFLtVyQIZX3coB8CAJt-1">
          <mxGeometry x="650" y="410" width="240" height="50" as="geometry" />
        </mxCell>
        <mxCell id="qxnbl_VsSM2lnrzA3ZRZ-0" value="&lt;i style=&quot;font-size: 27px&quot;&gt;How to solve with microservices?&lt;/i&gt;" style="text;html=1;strokeColor=none;fillColor=none;align=center;verticalAlign=middle;whiteSpace=wrap;rounded=0;shadow=0;fontSize=27;fontStyle=1" vertex="1" parent="_JFLtVyQIZX3coB8CAJt-1">
          <mxGeometry x="610" y="120" width="320" height="20" as="geometry" />
        </mxCell>
      </root>
    </mxGraphModel>
  </diagram>
  <diagram id="Dj9zYox5I0AwlN76HWpv" name="16 - sync">
    <mxGraphModel dx="1073" dy="528" grid="1" gridSize="10" guides="1" tooltips="1" connect="1" arrows="1" fold="1" page="1" pageScale="1" pageWidth="1920" pageHeight="1200" math="0" shadow="0">
      <root>
        <mxCell id="LZniHMzaFk9bndRYjWA2-0" />
        <mxCell id="LZniHMzaFk9bndRYjWA2-1" parent="LZniHMzaFk9bndRYjWA2-0" />
        <mxCell id="jrjBwA3U9exgp5r-nHJ4-0" value="" style="rounded=0;whiteSpace=wrap;html=1;shadow=1;fontSize=17;align=left;fillColor=#f5f5f5;strokeColor=#666666;fontColor=#333333;" vertex="1" parent="LZniHMzaFk9bndRYjWA2-1">
          <mxGeometry x="945" y="140" width="395" height="460" as="geometry" />
        </mxCell>
        <mxCell id="jrjBwA3U9exgp5r-nHJ4-1" value="Posts Service" style="rounded=0;whiteSpace=wrap;html=1;shadow=1;fontSize=21;align=center;fillColor=#f5f5f5;strokeColor=#666666;fontColor=#333333;fontStyle=1" vertex="1" parent="LZniHMzaFk9bndRYjWA2-1">
          <mxGeometry x="980" y="160" width="230" height="40" as="geometry" />
        </mxCell>
        <mxCell id="jrjBwA3U9exgp5r-nHJ4-16" style="edgeStyle=orthogonalEdgeStyle;rounded=0;orthogonalLoop=1;jettySize=auto;html=1;exitX=0.25;exitY=1;exitDx=0;exitDy=0;entryX=0.25;entryY=0;entryDx=0;entryDy=0;fontSize=27;" edge="1" parent="LZniHMzaFk9bndRYjWA2-1" source="jrjBwA3U9exgp5r-nHJ4-2" target="jrjBwA3U9exgp5r-nHJ4-7">
          <mxGeometry relative="1" as="geometry" />
        </mxCell>
        <mxCell id="jrjBwA3U9exgp5r-nHJ4-2" value="" style="rounded=0;whiteSpace=wrap;html=1;shadow=1;fontSize=17;align=left;fillColor=#f5f5f5;strokeColor=#666666;fontColor=#333333;" vertex="1" parent="LZniHMzaFk9bndRYjWA2-1">
          <mxGeometry x="980" y="200" width="230" height="110" as="geometry" />
        </mxCell>
        <mxCell id="jrjBwA3U9exgp5r-nHJ4-3" value="Posts Feature" style="whiteSpace=wrap;html=1;rounded=0;shadow=1;fontSize=25;align=center;fillColor=#ffe6cc;strokeColor=#d79b00;fontStyle=1" vertex="1" parent="LZniHMzaFk9bndRYjWA2-1">
          <mxGeometry x="1000" y="215" width="190" height="80" as="geometry" />
        </mxCell>
        <mxCell id="jrjBwA3U9exgp5r-nHJ4-4" value="" style="strokeWidth=1;shadow=0;dashed=0;align=center;html=1;shape=mxgraph.mockup.containers.browserWindow;rSize=0;strokeColor=#666666;strokeColor2=#008cff;strokeColor3=#c4c4c4;mainText=,;recursiveResize=0;rounded=0;fontSize=17;" vertex="1" parent="LZniHMzaFk9bndRYjWA2-1">
          <mxGeometry x="305" y="180" width="300" height="310" as="geometry" />
        </mxCell>
        <mxCell id="jrjBwA3U9exgp5r-nHJ4-5" value="Page 1" style="strokeWidth=1;shadow=0;dashed=0;align=center;html=1;shape=mxgraph.mockup.containers.anchor;fontSize=17;fontColor=#666666;align=left;" vertex="1" parent="jrjBwA3U9exgp5r-nHJ4-4">
          <mxGeometry x="60" y="12" width="110" height="26" as="geometry" />
        </mxCell>
        <mxCell id="jrjBwA3U9exgp5r-nHJ4-6" value="localhost" style="strokeWidth=1;shadow=0;dashed=0;align=center;html=1;shape=mxgraph.mockup.containers.anchor;rSize=0;fontSize=17;fontColor=#666666;align=left;" vertex="1" parent="jrjBwA3U9exgp5r-nHJ4-4">
          <mxGeometry x="130" y="60" width="250" height="26" as="geometry" />
        </mxCell>
        <mxCell id="jrjBwA3U9exgp5r-nHJ4-7" value="Comments Service" style="rounded=0;whiteSpace=wrap;html=1;shadow=1;fontSize=21;align=center;fillColor=#f5f5f5;strokeColor=#666666;fontColor=#333333;fontStyle=1" vertex="1" parent="LZniHMzaFk9bndRYjWA2-1">
          <mxGeometry x="980" y="430" width="230" height="40" as="geometry" />
        </mxCell>
        <mxCell id="jrjBwA3U9exgp5r-nHJ4-8" value="" style="rounded=0;whiteSpace=wrap;html=1;shadow=1;fontSize=17;align=left;fillColor=#f5f5f5;strokeColor=#666666;fontColor=#333333;" vertex="1" parent="LZniHMzaFk9bndRYjWA2-1">
          <mxGeometry x="980" y="470" width="230" height="110" as="geometry" />
        </mxCell>
        <mxCell id="jrjBwA3U9exgp5r-nHJ4-9" value="Comments Feature" style="whiteSpace=wrap;html=1;rounded=0;shadow=1;fontSize=25;align=center;fillColor=#ffe6cc;strokeColor=#d79b00;fontStyle=1" vertex="1" parent="LZniHMzaFk9bndRYjWA2-1">
          <mxGeometry x="995" y="485" width="200" height="80" as="geometry" />
        </mxCell>
        <mxCell id="jrjBwA3U9exgp5r-nHJ4-10" value="GET &lt;br&gt;/posts?comments=true" style="whiteSpace=wrap;html=1;rounded=0;shadow=1;fontSize=18;align=center;fillColor=#f8cecc;strokeColor=#b85450;fontStyle=1" vertex="1" parent="LZniHMzaFk9bndRYjWA2-1">
          <mxGeometry x="668" y="204" width="240" height="50" as="geometry" />
        </mxCell>
        <mxCell id="jrjBwA3U9exgp5r-nHJ4-11" value="" style="endArrow=classic;html=1;fontSize=27;entryX=0;entryY=0.5;entryDx=0;entryDy=0;" edge="1" parent="LZniHMzaFk9bndRYjWA2-1" target="jrjBwA3U9exgp5r-nHJ4-2">
          <mxGeometry width="50" height="50" relative="1" as="geometry">
            <mxPoint x="605" y="254.69" as="sourcePoint" />
            <mxPoint x="945" y="254.69" as="targetPoint" />
          </mxGeometry>
        </mxCell>
        <mxCell id="jrjBwA3U9exgp5r-nHJ4-15" value="Solution #1 - Sync communication" style="whiteSpace=wrap;html=1;rounded=0;shadow=1;fontSize=18;align=center;fillColor=#dae8fc;strokeColor=#6c8ebf;fontStyle=1" vertex="1" parent="LZniHMzaFk9bndRYjWA2-1">
          <mxGeometry x="540" y="80" width="350" height="50" as="geometry" />
        </mxCell>
        <mxCell id="jrjBwA3U9exgp5r-nHJ4-17" value="Hey, give me all comments for posts with ID&#39;s 37, 5, 72, 95, 50" style="whiteSpace=wrap;html=1;rounded=0;shadow=1;fontSize=18;align=center;fillColor=#f8cecc;strokeColor=#b85450;fontStyle=1" vertex="1" parent="LZniHMzaFk9bndRYjWA2-1">
          <mxGeometry x="1040" y="345" width="280" height="50" as="geometry" />
        </mxCell>
      </root>
    </mxGraphModel>
  </diagram>
  <diagram id="1aK3uOvb6PF3l7tdV6yl" name="17 - sync">
    <mxGraphModel dx="1155" dy="568" grid="1" gridSize="10" guides="1" tooltips="1" connect="1" arrows="1" fold="1" page="1" pageScale="1" pageWidth="1920" pageHeight="1200" math="0" shadow="0">
      <root>
        <mxCell id="OQfbxfgW4QDkjd73SBPw-0" />
        <mxCell id="OQfbxfgW4QDkjd73SBPw-1" parent="OQfbxfgW4QDkjd73SBPw-0" />
        <mxCell id="OQfbxfgW4QDkjd73SBPw-2" value="Conceptually easy to understand!" style="rounded=0;whiteSpace=wrap;html=1;fontSize=26;shadow=1;fillColor=#d5e8d4;strokeColor=#82b366;" vertex="1" parent="OQfbxfgW4QDkjd73SBPw-1">
          <mxGeometry x="630" y="355" width="820" height="65" as="geometry" />
        </mxCell>
        <mxCell id="OQfbxfgW4QDkjd73SBPw-4" value="Notes on Sync Communication" style="text;html=1;strokeColor=none;fillColor=none;align=center;verticalAlign=middle;whiteSpace=wrap;rounded=0;fontSize=27;fontStyle=1" vertex="1" parent="OQfbxfgW4QDkjd73SBPw-1">
          <mxGeometry x="710" y="320" width="660" height="20" as="geometry" />
        </mxCell>
        <mxCell id="OQfbxfgW4QDkjd73SBPw-5" value="Introduces a dependency between services" style="rounded=0;whiteSpace=wrap;html=1;fontSize=26;shadow=1;fillColor=#fff2cc;strokeColor=#d6b656;" vertex="1" parent="OQfbxfgW4QDkjd73SBPw-1">
          <mxGeometry x="630" y="440" width="820" height="70" as="geometry" />
        </mxCell>
        <mxCell id="OQfbxfgW4QDkjd73SBPw-6" value="If any inter-service request fails, the overall request fails" style="rounded=0;whiteSpace=wrap;html=1;fontSize=26;shadow=1;fillColor=#fff2cc;strokeColor=#d6b656;" vertex="1" parent="OQfbxfgW4QDkjd73SBPw-1">
          <mxGeometry x="630" y="530" width="820" height="70" as="geometry" />
        </mxCell>
        <mxCell id="OQfbxfgW4QDkjd73SBPw-7" value="The entire request is only as fast as the slowest request" style="rounded=0;whiteSpace=wrap;html=1;fontSize=26;shadow=1;fillColor=#fff2cc;strokeColor=#d6b656;" vertex="1" parent="OQfbxfgW4QDkjd73SBPw-1">
          <mxGeometry x="630" y="620" width="820" height="70" as="geometry" />
        </mxCell>
        <mxCell id="OQfbxfgW4QDkjd73SBPw-8" value="Can easily introduce webs of requests" style="rounded=0;whiteSpace=wrap;html=1;fontSize=26;shadow=1;fillColor=#fff2cc;strokeColor=#d6b656;" vertex="1" parent="OQfbxfgW4QDkjd73SBPw-1">
          <mxGeometry x="630" y="710" width="820" height="70" as="geometry" />
        </mxCell>
      </root>
    </mxGraphModel>
  </diagram>
  <diagram id="RTgT4if6qx0U7S7L1s2D" name="18 - async">
    <mxGraphModel dx="1113" dy="547" grid="1" gridSize="10" guides="1" tooltips="1" connect="1" arrows="1" fold="1" page="1" pageScale="1" pageWidth="1920" pageHeight="1200" math="0" shadow="0">
      <root>
        <mxCell id="GhvQJ8RATa0D0APq7Np2-0" />
        <mxCell id="GhvQJ8RATa0D0APq7Np2-1" parent="GhvQJ8RATa0D0APq7Np2-0" />
        <mxCell id="HMGmrshtYKU9g1ESEiw6-1" value="Posts Service" style="rounded=0;whiteSpace=wrap;html=1;shadow=1;fontSize=21;align=center;fillColor=#f5f5f5;strokeColor=#666666;fontColor=#333333;fontStyle=0" vertex="1" parent="GhvQJ8RATa0D0APq7Np2-1">
          <mxGeometry x="980" y="160" width="230" height="40" as="geometry" />
        </mxCell>
        <mxCell id="HMGmrshtYKU9g1ESEiw6-3" value="" style="rounded=0;whiteSpace=wrap;html=1;shadow=1;fontSize=17;align=left;fillColor=#f5f5f5;strokeColor=#666666;fontColor=#333333;fontStyle=0" vertex="1" parent="GhvQJ8RATa0D0APq7Np2-1">
          <mxGeometry x="980" y="200" width="230" height="90" as="geometry" />
        </mxCell>
        <mxCell id="HMGmrshtYKU9g1ESEiw6-4" value="Posts Feature" style="whiteSpace=wrap;html=1;rounded=0;shadow=1;fontSize=21;align=center;fillColor=#ffe6cc;strokeColor=#d79b00;fontStyle=0" vertex="1" parent="GhvQJ8RATa0D0APq7Np2-1">
          <mxGeometry x="1000" y="215" width="190" height="55" as="geometry" />
        </mxCell>
        <mxCell id="HMGmrshtYKU9g1ESEiw6-8" value="Comments Service" style="rounded=0;whiteSpace=wrap;html=1;shadow=1;fontSize=21;align=center;fillColor=#f5f5f5;strokeColor=#666666;fontColor=#333333;fontStyle=0" vertex="1" parent="GhvQJ8RATa0D0APq7Np2-1">
          <mxGeometry x="980" y="310" width="230" height="40" as="geometry" />
        </mxCell>
        <mxCell id="HMGmrshtYKU9g1ESEiw6-9" value="" style="rounded=0;whiteSpace=wrap;html=1;shadow=1;fontSize=17;align=left;fillColor=#f5f5f5;strokeColor=#666666;fontColor=#333333;fontStyle=0" vertex="1" parent="GhvQJ8RATa0D0APq7Np2-1">
          <mxGeometry x="980" y="350" width="230" height="90" as="geometry" />
        </mxCell>
        <mxCell id="HMGmrshtYKU9g1ESEiw6-10" value="Comments Feature" style="whiteSpace=wrap;html=1;rounded=0;shadow=1;fontSize=21;align=center;fillColor=#ffe6cc;strokeColor=#d79b00;fontStyle=0" vertex="1" parent="GhvQJ8RATa0D0APq7Np2-1">
          <mxGeometry x="995" y="365" width="200" height="55" as="geometry" />
        </mxCell>
        <mxCell id="HMGmrshtYKU9g1ESEiw6-13" value="Solution #2 - Async Communication" style="whiteSpace=wrap;html=1;rounded=0;shadow=1;fontSize=18;align=center;fillColor=#dae8fc;strokeColor=#6c8ebf;fontStyle=1" vertex="1" parent="GhvQJ8RATa0D0APq7Np2-1">
          <mxGeometry x="1120" y="90" width="350" height="50" as="geometry" />
        </mxCell>
        <mxCell id="HMGmrshtYKU9g1ESEiw6-15" value="Query Service" style="rounded=0;whiteSpace=wrap;html=1;shadow=1;fontSize=21;align=center;fillColor=#f5f5f5;strokeColor=#666666;fontColor=#333333;fontStyle=0" vertex="1" parent="GhvQJ8RATa0D0APq7Np2-1">
          <mxGeometry x="980" y="460" width="230" height="40" as="geometry" />
        </mxCell>
        <mxCell id="HMGmrshtYKU9g1ESEiw6-16" value="" style="rounded=0;whiteSpace=wrap;html=1;shadow=1;fontSize=17;align=left;fillColor=#f5f5f5;strokeColor=#666666;fontColor=#333333;fontStyle=0" vertex="1" parent="GhvQJ8RATa0D0APq7Np2-1">
          <mxGeometry x="980" y="500" width="230" height="90" as="geometry" />
        </mxCell>
        <mxCell id="HMGmrshtYKU9g1ESEiw6-17" value="Query Feature" style="whiteSpace=wrap;html=1;rounded=0;shadow=1;fontSize=21;align=center;fillColor=#ffe6cc;strokeColor=#d79b00;fontStyle=0" vertex="1" parent="GhvQJ8RATa0D0APq7Np2-1">
          <mxGeometry x="995" y="515" width="200" height="55" as="geometry" />
        </mxCell>
        <mxCell id="HMGmrshtYKU9g1ESEiw6-18" value="Event Broker" style="rounded=0;whiteSpace=wrap;html=1;shadow=1;fontSize=21;align=center;fillColor=#f5f5f5;strokeColor=#666666;fontColor=#333333;fontStyle=0" vertex="1" parent="GhvQJ8RATa0D0APq7Np2-1">
          <mxGeometry x="1390" y="160" width="230" height="40" as="geometry" />
        </mxCell>
        <mxCell id="HMGmrshtYKU9g1ESEiw6-19" value="" style="rounded=0;whiteSpace=wrap;html=1;shadow=1;fontSize=17;align=left;fillColor=#f5f5f5;strokeColor=#666666;fontColor=#333333;" vertex="1" parent="GhvQJ8RATa0D0APq7Np2-1">
          <mxGeometry x="1390" y="200" width="230" height="390" as="geometry" />
        </mxCell>
        <mxCell id="HMGmrshtYKU9g1ESEiw6-20" value="" style="shape=curlyBracket;whiteSpace=wrap;html=1;rounded=1;shadow=0;fontSize=21;align=center;" vertex="1" parent="GhvQJ8RATa0D0APq7Np2-1">
          <mxGeometry x="930" y="160" width="40" height="130" as="geometry" />
        </mxCell>
        <mxCell id="HMGmrshtYKU9g1ESEiw6-21" value="Will emit an event any time a post is created" style="rounded=0;whiteSpace=wrap;html=1;shadow=0;fontSize=16;align=center;fillColor=#f8cecc;strokeColor=#b85450;fontStyle=1" vertex="1" parent="GhvQJ8RATa0D0APq7Np2-1">
          <mxGeometry x="750" y="195" width="180" height="60" as="geometry" />
        </mxCell>
        <mxCell id="HMGmrshtYKU9g1ESEiw6-22" value="" style="shape=curlyBracket;whiteSpace=wrap;html=1;rounded=1;shadow=0;fontSize=21;align=center;" vertex="1" parent="GhvQJ8RATa0D0APq7Np2-1">
          <mxGeometry x="930" y="310" width="40" height="130" as="geometry" />
        </mxCell>
        <mxCell id="HMGmrshtYKU9g1ESEiw6-23" value="Will emit an event any time a comment is created" style="rounded=0;whiteSpace=wrap;html=1;shadow=0;fontSize=16;align=center;fillColor=#f8cecc;strokeColor=#b85450;fontStyle=1" vertex="1" parent="GhvQJ8RATa0D0APq7Np2-1">
          <mxGeometry x="750" y="345" width="180" height="60" as="geometry" />
        </mxCell>
        <mxCell id="HMGmrshtYKU9g1ESEiw6-24" value="" style="shape=curlyBracket;whiteSpace=wrap;html=1;rounded=1;shadow=0;fontSize=21;align=center;" vertex="1" parent="GhvQJ8RATa0D0APq7Np2-1">
          <mxGeometry x="930" y="460" width="40" height="130" as="geometry" />
        </mxCell>
        <mxCell id="HMGmrshtYKU9g1ESEiw6-25" value="Assembles all of the blogs + comments into an efficient data structure" style="rounded=0;whiteSpace=wrap;html=1;shadow=0;fontSize=16;align=center;fillColor=#f8cecc;strokeColor=#b85450;fontStyle=1" vertex="1" parent="GhvQJ8RATa0D0APq7Np2-1">
          <mxGeometry x="750" y="482.5" width="180" height="85" as="geometry" />
        </mxCell>
        <mxCell id="HMGmrshtYKU9g1ESEiw6-26" value="" style="shape=curlyBracket;whiteSpace=wrap;html=1;rounded=1;shadow=0;fontSize=21;align=center;rotation=-180;" vertex="1" parent="GhvQJ8RATa0D0APq7Np2-1">
          <mxGeometry x="1630" y="160" width="40" height="430" as="geometry" />
        </mxCell>
        <mxCell id="HMGmrshtYKU9g1ESEiw6-27" value="Receives events, sends them on to interested parties" style="rounded=0;whiteSpace=wrap;html=1;shadow=0;fontSize=16;align=center;fillColor=#f8cecc;strokeColor=#b85450;fontStyle=1" vertex="1" parent="GhvQJ8RATa0D0APq7Np2-1">
          <mxGeometry x="1670" y="345" width="180" height="60" as="geometry" />
        </mxCell>
      </root>
    </mxGraphModel>
  </diagram>
  <diagram name="19 - async" id="O4HczYlZeuRa9EneTarG">
    <mxGraphModel dx="1036" dy="510" grid="1" gridSize="10" guides="1" tooltips="1" connect="1" arrows="1" fold="1" page="1" pageScale="1" pageWidth="1920" pageHeight="1200" math="0" shadow="0">
      <root>
        <mxCell id="h1AA6yPE6ayhgK-g8T3K-0" />
        <mxCell id="h1AA6yPE6ayhgK-g8T3K-1" parent="h1AA6yPE6ayhgK-g8T3K-0" />
        <mxCell id="h1AA6yPE6ayhgK-g8T3K-2" value="Posts Service" style="rounded=0;whiteSpace=wrap;html=1;shadow=1;fontSize=21;align=center;fillColor=#f5f5f5;strokeColor=#666666;fontColor=#333333;fontStyle=0" vertex="1" parent="h1AA6yPE6ayhgK-g8T3K-1">
          <mxGeometry x="630" y="180" width="230" height="40" as="geometry" />
        </mxCell>
        <mxCell id="iNz6C6YqEpEsBRWIG8RR-0" style="edgeStyle=orthogonalEdgeStyle;rounded=0;orthogonalLoop=1;jettySize=auto;html=1;exitX=1;exitY=0.5;exitDx=0;exitDy=0;entryX=-0.002;entryY=0.115;entryDx=0;entryDy=0;entryPerimeter=0;fontSize=16;" edge="1" parent="h1AA6yPE6ayhgK-g8T3K-1" source="h1AA6yPE6ayhgK-g8T3K-3" target="h1AA6yPE6ayhgK-g8T3K-13">
          <mxGeometry relative="1" as="geometry" />
        </mxCell>
        <mxCell id="h1AA6yPE6ayhgK-g8T3K-3" value="" style="rounded=0;whiteSpace=wrap;html=1;shadow=1;fontSize=17;align=left;fillColor=#f5f5f5;strokeColor=#666666;fontColor=#333333;fontStyle=0" vertex="1" parent="h1AA6yPE6ayhgK-g8T3K-1">
          <mxGeometry x="630" y="220" width="230" height="90" as="geometry" />
        </mxCell>
        <mxCell id="h1AA6yPE6ayhgK-g8T3K-4" value="Posts Feature" style="whiteSpace=wrap;html=1;rounded=0;shadow=1;fontSize=21;align=center;fillColor=#ffe6cc;strokeColor=#d79b00;fontStyle=0" vertex="1" parent="h1AA6yPE6ayhgK-g8T3K-1">
          <mxGeometry x="650" y="235" width="190" height="55" as="geometry" />
        </mxCell>
        <mxCell id="h1AA6yPE6ayhgK-g8T3K-5" value="Comments Service" style="rounded=0;whiteSpace=wrap;html=1;shadow=1;fontSize=21;align=center;fillColor=#f5f5f5;strokeColor=#666666;fontColor=#333333;fontStyle=0" vertex="1" parent="h1AA6yPE6ayhgK-g8T3K-1">
          <mxGeometry x="630" y="330" width="230" height="40" as="geometry" />
        </mxCell>
        <mxCell id="h1AA6yPE6ayhgK-g8T3K-6" value="" style="rounded=0;whiteSpace=wrap;html=1;shadow=1;fontSize=17;align=left;fillColor=#f5f5f5;strokeColor=#666666;fontColor=#333333;fontStyle=0" vertex="1" parent="h1AA6yPE6ayhgK-g8T3K-1">
          <mxGeometry x="630" y="370" width="230" height="90" as="geometry" />
        </mxCell>
        <mxCell id="h1AA6yPE6ayhgK-g8T3K-7" value="Comments Feature" style="whiteSpace=wrap;html=1;rounded=0;shadow=1;fontSize=21;align=center;fillColor=#ffe6cc;strokeColor=#d79b00;fontStyle=0" vertex="1" parent="h1AA6yPE6ayhgK-g8T3K-1">
          <mxGeometry x="645" y="385" width="200" height="55" as="geometry" />
        </mxCell>
        <mxCell id="h1AA6yPE6ayhgK-g8T3K-8" value="Solution #2 - Async Communication" style="whiteSpace=wrap;html=1;rounded=0;shadow=1;fontSize=18;align=center;fillColor=#dae8fc;strokeColor=#6c8ebf;fontStyle=1" vertex="1" parent="h1AA6yPE6ayhgK-g8T3K-1">
          <mxGeometry x="770" y="110" width="350" height="50" as="geometry" />
        </mxCell>
        <mxCell id="h1AA6yPE6ayhgK-g8T3K-9" value="Query Service" style="rounded=0;whiteSpace=wrap;html=1;shadow=1;fontSize=21;align=center;fillColor=#f5f5f5;strokeColor=#666666;fontColor=#333333;fontStyle=0" vertex="1" parent="h1AA6yPE6ayhgK-g8T3K-1">
          <mxGeometry x="630" y="480" width="230" height="40" as="geometry" />
        </mxCell>
        <mxCell id="h1AA6yPE6ayhgK-g8T3K-10" value="" style="rounded=0;whiteSpace=wrap;html=1;shadow=1;fontSize=17;align=left;fillColor=#f5f5f5;strokeColor=#666666;fontColor=#333333;fontStyle=0" vertex="1" parent="h1AA6yPE6ayhgK-g8T3K-1">
          <mxGeometry x="630" y="520" width="230" height="90" as="geometry" />
        </mxCell>
        <mxCell id="h1AA6yPE6ayhgK-g8T3K-11" value="Query Feature" style="whiteSpace=wrap;html=1;rounded=0;shadow=1;fontSize=21;align=center;fillColor=#ffe6cc;strokeColor=#d79b00;fontStyle=0" vertex="1" parent="h1AA6yPE6ayhgK-g8T3K-1">
          <mxGeometry x="645" y="535" width="200" height="55" as="geometry" />
        </mxCell>
        <mxCell id="h1AA6yPE6ayhgK-g8T3K-12" value="Event Bus" style="rounded=0;whiteSpace=wrap;html=1;shadow=1;fontSize=21;align=center;fillColor=#f5f5f5;strokeColor=#666666;fontColor=#333333;fontStyle=0" vertex="1" parent="h1AA6yPE6ayhgK-g8T3K-1">
          <mxGeometry x="1040" y="180" width="230" height="40" as="geometry" />
        </mxCell>
        <mxCell id="h1AA6yPE6ayhgK-g8T3K-13" value="" style="rounded=0;whiteSpace=wrap;html=1;shadow=1;fontSize=17;align=left;fillColor=#f5f5f5;strokeColor=#666666;fontColor=#333333;" vertex="1" parent="h1AA6yPE6ayhgK-g8T3K-1">
          <mxGeometry x="1040" y="220" width="230" height="390" as="geometry" />
        </mxCell>
        <mxCell id="iNz6C6YqEpEsBRWIG8RR-1" style="edgeStyle=orthogonalEdgeStyle;rounded=0;orthogonalLoop=1;jettySize=auto;html=1;exitX=1;exitY=0.5;exitDx=0;exitDy=0;entryX=0;entryY=0.5;entryDx=0;entryDy=0;fontSize=16;" edge="1" parent="h1AA6yPE6ayhgK-g8T3K-1" source="h1AA6yPE6ayhgK-g8T3K-15" target="h1AA6yPE6ayhgK-g8T3K-3">
          <mxGeometry relative="1" as="geometry" />
        </mxCell>
        <mxCell id="h1AA6yPE6ayhgK-g8T3K-15" value="POST /posts" style="rounded=0;whiteSpace=wrap;html=1;shadow=0;fontSize=16;align=center;fillColor=#d5e8d4;strokeColor=#82b366;fontStyle=1" vertex="1" parent="h1AA6yPE6ayhgK-g8T3K-1">
          <mxGeometry x="460" y="242.5" width="130" height="45" as="geometry" />
        </mxCell>
        <mxCell id="iNz6C6YqEpEsBRWIG8RR-9" value="" style="group" vertex="1" connectable="0" parent="h1AA6yPE6ayhgK-g8T3K-1">
          <mxGeometry x="890" y="320" width="280" height="115" as="geometry" />
        </mxCell>
        <mxCell id="iNz6C6YqEpEsBRWIG8RR-13" value="" style="group" vertex="1" connectable="0" parent="h1AA6yPE6ayhgK-g8T3K-1">
          <mxGeometry x="860" y="280" width="200" height="95" as="geometry" />
        </mxCell>
        <mxCell id="iNz6C6YqEpEsBRWIG8RR-10" value="&lt;font style=&quot;font-size: 15px;&quot;&gt;{ id: &#39;a1jp5&#39;, title: &#39;new post&#39;}&lt;/font&gt;" style="rounded=0;whiteSpace=wrap;html=1;shadow=0;fontSize=15;fillColor=#f8cecc;strokeColor=#b85450;" vertex="1" parent="iNz6C6YqEpEsBRWIG8RR-13">
          <mxGeometry y="60" width="200" height="35" as="geometry" />
        </mxCell>
        <mxCell id="iNz6C6YqEpEsBRWIG8RR-11" value="&lt;b&gt;Event&lt;/b&gt;" style="rounded=0;whiteSpace=wrap;html=1;shadow=0;fontSize=21;fillColor=#f8cecc;strokeColor=#b85450;" vertex="1" parent="iNz6C6YqEpEsBRWIG8RR-13">
          <mxGeometry width="200" height="25" as="geometry" />
        </mxCell>
        <mxCell id="iNz6C6YqEpEsBRWIG8RR-12" value="&lt;span style=&quot;font-size: 15px;&quot;&gt;type: PostCreated&lt;/span&gt;" style="rounded=0;whiteSpace=wrap;html=1;shadow=0;fontSize=15;fillColor=#f8cecc;strokeColor=#b85450;fontStyle=0" vertex="1" parent="iNz6C6YqEpEsBRWIG8RR-13">
          <mxGeometry y="25" width="200" height="35" as="geometry" />
        </mxCell>
      </root>
    </mxGraphModel>
  </diagram>
  <diagram id="8jDbclmkcmcx0pgfHqEX" name="20 - query">
    <mxGraphModel dx="858" dy="422" grid="1" gridSize="10" guides="1" tooltips="1" connect="1" arrows="1" fold="1" page="1" pageScale="1" pageWidth="1920" pageHeight="1200" math="0" shadow="0">
      <root>
        <mxCell id="_Htd0DRQAhxzy08b4qOM-0" />
        <mxCell id="_Htd0DRQAhxzy08b4qOM-1" parent="_Htd0DRQAhxzy08b4qOM-0" />
        <mxCell id="k3AoA4kUfJuWd2WNXRS3-0" value="Query Service" style="rounded=0;whiteSpace=wrap;html=1;shadow=1;fontSize=21;align=center;fillColor=#f5f5f5;strokeColor=#666666;fontColor=#333333;fontStyle=0" vertex="1" parent="_Htd0DRQAhxzy08b4qOM-1">
          <mxGeometry x="470" y="190" width="410" height="40" as="geometry" />
        </mxCell>
        <mxCell id="k3AoA4kUfJuWd2WNXRS3-1" value="" style="rounded=0;whiteSpace=wrap;html=1;shadow=1;fontSize=17;align=left;fillColor=#f5f5f5;strokeColor=#666666;fontColor=#333333;fontStyle=0" vertex="1" parent="_Htd0DRQAhxzy08b4qOM-1">
          <mxGeometry x="470" y="230" width="410" height="210" as="geometry" />
        </mxCell>
        <mxCell id="VTxPuGFT-7NwzM7rq1JI-0" value="" style="group" vertex="1" connectable="0" parent="_Htd0DRQAhxzy08b4qOM-1">
          <mxGeometry x="1010" y="280" width="200" height="95" as="geometry" />
        </mxCell>
        <mxCell id="VTxPuGFT-7NwzM7rq1JI-1" value="&lt;font style=&quot;font-size: 15px;&quot;&gt;{ id: &#39;a1jp5&#39;, title: &#39;new post&#39;}&lt;/font&gt;" style="rounded=0;whiteSpace=wrap;html=1;shadow=0;fontSize=15;fillColor=#f8cecc;strokeColor=#b85450;" vertex="1" parent="VTxPuGFT-7NwzM7rq1JI-0">
          <mxGeometry y="60" width="200" height="35" as="geometry" />
        </mxCell>
        <mxCell id="VTxPuGFT-7NwzM7rq1JI-2" value="&lt;b&gt;Event&lt;/b&gt;" style="rounded=0;whiteSpace=wrap;html=1;shadow=0;fontSize=21;fillColor=#f8cecc;strokeColor=#b85450;" vertex="1" parent="VTxPuGFT-7NwzM7rq1JI-0">
          <mxGeometry width="200" height="25" as="geometry" />
        </mxCell>
        <mxCell id="VTxPuGFT-7NwzM7rq1JI-3" value="&lt;span style=&quot;font-size: 15px;&quot;&gt;type: PostCreated&lt;/span&gt;" style="rounded=0;whiteSpace=wrap;html=1;shadow=0;fontSize=15;fillColor=#f8cecc;strokeColor=#b85450;fontStyle=0" vertex="1" parent="VTxPuGFT-7NwzM7rq1JI-0">
          <mxGeometry y="25" width="200" height="35" as="geometry" />
        </mxCell>
        <mxCell id="VTxPuGFT-7NwzM7rq1JI-4" value="Posts" style="rounded=0;whiteSpace=wrap;html=1;shadow=0;fontSize=15;align=center;fillColor=#dae8fc;strokeColor=#6c8ebf;fontStyle=1" vertex="1" parent="_Htd0DRQAhxzy08b4qOM-1">
          <mxGeometry x="490" y="245" width="370" height="25" as="geometry" />
        </mxCell>
        <mxCell id="VTxPuGFT-7NwzM7rq1JI-5" value="id" style="rounded=0;whiteSpace=wrap;html=1;shadow=0;fontSize=15;align=center;fillColor=#d5e8d4;strokeColor=#82b366;fontStyle=2" vertex="1" parent="_Htd0DRQAhxzy08b4qOM-1">
          <mxGeometry x="490" y="270" width="70" height="20" as="geometry" />
        </mxCell>
        <mxCell id="VTxPuGFT-7NwzM7rq1JI-6" value="title" style="rounded=0;whiteSpace=wrap;html=1;shadow=0;fontSize=15;align=center;fillColor=#d5e8d4;strokeColor=#82b366;fontStyle=2" vertex="1" parent="_Htd0DRQAhxzy08b4qOM-1">
          <mxGeometry x="560" y="270" width="110" height="20" as="geometry" />
        </mxCell>
        <mxCell id="VTxPuGFT-7NwzM7rq1JI-7" value="comments" style="rounded=0;whiteSpace=wrap;html=1;shadow=0;fontSize=15;align=center;fillColor=#d5e8d4;strokeColor=#82b366;fontStyle=2" vertex="1" parent="_Htd0DRQAhxzy08b4qOM-1">
          <mxGeometry x="670" y="270" width="190" height="20" as="geometry" />
        </mxCell>
        <mxCell id="VTxPuGFT-7NwzM7rq1JI-8" value="a1jp5" style="rounded=0;whiteSpace=wrap;html=1;shadow=0;fontSize=15;align=center;" vertex="1" parent="_Htd0DRQAhxzy08b4qOM-1">
          <mxGeometry x="490" y="290" width="70" height="30" as="geometry" />
        </mxCell>
        <mxCell id="VTxPuGFT-7NwzM7rq1JI-9" value="new post" style="rounded=0;whiteSpace=wrap;html=1;shadow=0;fontSize=15;align=center;" vertex="1" parent="_Htd0DRQAhxzy08b4qOM-1">
          <mxGeometry x="560" y="290" width="110" height="30" as="geometry" />
        </mxCell>
        <mxCell id="VTxPuGFT-7NwzM7rq1JI-10" value="[&amp;nbsp; &amp;nbsp; ]&amp;nbsp;" style="rounded=0;whiteSpace=wrap;html=1;shadow=0;fontSize=15;align=center;" vertex="1" parent="_Htd0DRQAhxzy08b4qOM-1">
          <mxGeometry x="670" y="290" width="190" height="30" as="geometry" />
        </mxCell>
        <mxCell id="VTxPuGFT-7NwzM7rq1JI-12" style="edgeStyle=orthogonalEdgeStyle;rounded=0;orthogonalLoop=1;jettySize=auto;html=1;exitX=0;exitY=0.5;exitDx=0;exitDy=0;entryX=0.999;entryY=0.441;entryDx=0;entryDy=0;entryPerimeter=0;fontSize=15;" edge="1" parent="_Htd0DRQAhxzy08b4qOM-1" source="VTxPuGFT-7NwzM7rq1JI-3" target="k3AoA4kUfJuWd2WNXRS3-1">
          <mxGeometry relative="1" as="geometry" />
        </mxCell>
      </root>
    </mxGraphModel>
  </diagram>
  <diagram name="21 - comment" id="-owY66NGeMOdnTq-Ie8H">
    <mxGraphModel dx="1113" dy="547" grid="1" gridSize="10" guides="1" tooltips="1" connect="1" arrows="1" fold="1" page="1" pageScale="1" pageWidth="1920" pageHeight="1200" math="0" shadow="0">
      <root>
        <mxCell id="7TcbfxzlcFphuBwjYKQD-0" />
        <mxCell id="7TcbfxzlcFphuBwjYKQD-1" parent="7TcbfxzlcFphuBwjYKQD-0" />
        <mxCell id="7TcbfxzlcFphuBwjYKQD-2" value="Posts Service" style="rounded=0;whiteSpace=wrap;html=1;shadow=1;fontSize=21;align=center;fillColor=#f5f5f5;strokeColor=#666666;fontColor=#333333;fontStyle=0" vertex="1" parent="7TcbfxzlcFphuBwjYKQD-1">
          <mxGeometry x="630" y="180" width="230" height="40" as="geometry" />
        </mxCell>
        <mxCell id="7TcbfxzlcFphuBwjYKQD-4" value="" style="rounded=0;whiteSpace=wrap;html=1;shadow=1;fontSize=17;align=left;fillColor=#f5f5f5;strokeColor=#666666;fontColor=#333333;fontStyle=0" vertex="1" parent="7TcbfxzlcFphuBwjYKQD-1">
          <mxGeometry x="630" y="220" width="230" height="90" as="geometry" />
        </mxCell>
        <mxCell id="7TcbfxzlcFphuBwjYKQD-5" value="Posts Feature" style="whiteSpace=wrap;html=1;rounded=0;shadow=1;fontSize=21;align=center;fillColor=#ffe6cc;strokeColor=#d79b00;fontStyle=0" vertex="1" parent="7TcbfxzlcFphuBwjYKQD-1">
          <mxGeometry x="650" y="235" width="190" height="55" as="geometry" />
        </mxCell>
        <mxCell id="7TcbfxzlcFphuBwjYKQD-6" value="Comments Service" style="rounded=0;whiteSpace=wrap;html=1;shadow=1;fontSize=21;align=center;fillColor=#f5f5f5;strokeColor=#666666;fontColor=#333333;fontStyle=0" vertex="1" parent="7TcbfxzlcFphuBwjYKQD-1">
          <mxGeometry x="630" y="330" width="230" height="40" as="geometry" />
        </mxCell>
        <mxCell id="IX_yWSj4YzPypYXpVIVL-0" style="edgeStyle=orthogonalEdgeStyle;rounded=0;orthogonalLoop=1;jettySize=auto;html=1;exitX=1;exitY=0.5;exitDx=0;exitDy=0;fontSize=13;" edge="1" parent="7TcbfxzlcFphuBwjYKQD-1" source="7TcbfxzlcFphuBwjYKQD-7">
          <mxGeometry relative="1" as="geometry">
            <mxPoint x="1040" y="415.2222222222222" as="targetPoint" />
          </mxGeometry>
        </mxCell>
        <mxCell id="7TcbfxzlcFphuBwjYKQD-7" value="" style="rounded=0;whiteSpace=wrap;html=1;shadow=1;fontSize=17;align=left;fillColor=#f5f5f5;strokeColor=#666666;fontColor=#333333;fontStyle=0" vertex="1" parent="7TcbfxzlcFphuBwjYKQD-1">
          <mxGeometry x="630" y="370" width="230" height="90" as="geometry" />
        </mxCell>
        <mxCell id="7TcbfxzlcFphuBwjYKQD-8" value="Comments Feature" style="whiteSpace=wrap;html=1;rounded=0;shadow=1;fontSize=21;align=center;fillColor=#ffe6cc;strokeColor=#d79b00;fontStyle=0" vertex="1" parent="7TcbfxzlcFphuBwjYKQD-1">
          <mxGeometry x="645" y="385" width="200" height="55" as="geometry" />
        </mxCell>
        <mxCell id="7TcbfxzlcFphuBwjYKQD-9" value="Solution #2 - Async Communication" style="whiteSpace=wrap;html=1;rounded=0;shadow=1;fontSize=18;align=center;fillColor=#dae8fc;strokeColor=#6c8ebf;fontStyle=1" vertex="1" parent="7TcbfxzlcFphuBwjYKQD-1">
          <mxGeometry x="770" y="110" width="350" height="50" as="geometry" />
        </mxCell>
        <mxCell id="7TcbfxzlcFphuBwjYKQD-10" value="Query Service" style="rounded=0;whiteSpace=wrap;html=1;shadow=1;fontSize=21;align=center;fillColor=#f5f5f5;strokeColor=#666666;fontColor=#333333;fontStyle=0" vertex="1" parent="7TcbfxzlcFphuBwjYKQD-1">
          <mxGeometry x="630" y="480" width="230" height="40" as="geometry" />
        </mxCell>
        <mxCell id="7TcbfxzlcFphuBwjYKQD-11" value="" style="rounded=0;whiteSpace=wrap;html=1;shadow=1;fontSize=17;align=left;fillColor=#f5f5f5;strokeColor=#666666;fontColor=#333333;fontStyle=0" vertex="1" parent="7TcbfxzlcFphuBwjYKQD-1">
          <mxGeometry x="630" y="520" width="230" height="90" as="geometry" />
        </mxCell>
        <mxCell id="7TcbfxzlcFphuBwjYKQD-12" value="Query Feature" style="whiteSpace=wrap;html=1;rounded=0;shadow=1;fontSize=21;align=center;fillColor=#ffe6cc;strokeColor=#d79b00;fontStyle=0" vertex="1" parent="7TcbfxzlcFphuBwjYKQD-1">
          <mxGeometry x="645" y="535" width="200" height="55" as="geometry" />
        </mxCell>
        <mxCell id="7TcbfxzlcFphuBwjYKQD-13" value="Event Bus" style="rounded=0;whiteSpace=wrap;html=1;shadow=1;fontSize=21;align=center;fillColor=#f5f5f5;strokeColor=#666666;fontColor=#333333;fontStyle=0" vertex="1" parent="7TcbfxzlcFphuBwjYKQD-1">
          <mxGeometry x="1040" y="180" width="230" height="40" as="geometry" />
        </mxCell>
        <mxCell id="IX_yWSj4YzPypYXpVIVL-1" style="edgeStyle=orthogonalEdgeStyle;rounded=0;orthogonalLoop=1;jettySize=auto;html=1;exitX=0;exitY=0.75;exitDx=0;exitDy=0;entryX=0.998;entryY=0.391;entryDx=0;entryDy=0;entryPerimeter=0;fontSize=13;" edge="1" parent="7TcbfxzlcFphuBwjYKQD-1" source="7TcbfxzlcFphuBwjYKQD-14" target="7TcbfxzlcFphuBwjYKQD-11">
          <mxGeometry relative="1" as="geometry" />
        </mxCell>
        <mxCell id="7TcbfxzlcFphuBwjYKQD-14" value="" style="rounded=0;whiteSpace=wrap;html=1;shadow=1;fontSize=17;align=left;fillColor=#f5f5f5;strokeColor=#666666;fontColor=#333333;" vertex="1" parent="7TcbfxzlcFphuBwjYKQD-1">
          <mxGeometry x="1040" y="220" width="230" height="390" as="geometry" />
        </mxCell>
        <mxCell id="7TcbfxzlcFphuBwjYKQD-15" style="edgeStyle=orthogonalEdgeStyle;rounded=0;orthogonalLoop=1;jettySize=auto;html=1;exitX=1;exitY=0.5;exitDx=0;exitDy=0;entryX=0;entryY=0.5;entryDx=0;entryDy=0;fontSize=16;" edge="1" parent="7TcbfxzlcFphuBwjYKQD-1" source="7TcbfxzlcFphuBwjYKQD-16">
          <mxGeometry relative="1" as="geometry">
            <mxPoint x="630" y="412.5" as="targetPoint" />
          </mxGeometry>
        </mxCell>
        <mxCell id="7TcbfxzlcFphuBwjYKQD-16" value="POST /posts/:id/comments" style="rounded=0;whiteSpace=wrap;html=1;shadow=0;fontSize=16;align=center;fillColor=#d5e8d4;strokeColor=#82b366;fontStyle=1" vertex="1" parent="7TcbfxzlcFphuBwjYKQD-1">
          <mxGeometry x="420" y="390" width="170" height="45" as="geometry" />
        </mxCell>
        <mxCell id="7TcbfxzlcFphuBwjYKQD-17" value="" style="group" vertex="1" connectable="0" parent="7TcbfxzlcFphuBwjYKQD-1">
          <mxGeometry x="890" y="320" width="280" height="115" as="geometry" />
        </mxCell>
        <mxCell id="7TcbfxzlcFphuBwjYKQD-18" value="" style="group;fontSize=8;" vertex="1" connectable="0" parent="7TcbfxzlcFphuBwjYKQD-1">
          <mxGeometry x="850" y="460" width="200" height="95" as="geometry" />
        </mxCell>
        <mxCell id="7TcbfxzlcFphuBwjYKQD-19" value="&lt;font style=&quot;font-size: 11px&quot;&gt;{ id: &#39;2j56&#39;, content: &#39;a comment&#39;, postId: &#39;a1jp5&#39; }&lt;/font&gt;" style="rounded=0;whiteSpace=wrap;html=1;shadow=0;fontSize=15;fillColor=#f8cecc;strokeColor=#b85450;" vertex="1" parent="7TcbfxzlcFphuBwjYKQD-18">
          <mxGeometry y="60" width="200" height="35" as="geometry" />
        </mxCell>
        <mxCell id="7TcbfxzlcFphuBwjYKQD-20" value="&lt;b&gt;Event&lt;/b&gt;" style="rounded=0;whiteSpace=wrap;html=1;shadow=0;fontSize=21;fillColor=#f8cecc;strokeColor=#b85450;" vertex="1" parent="7TcbfxzlcFphuBwjYKQD-18">
          <mxGeometry width="200" height="25" as="geometry" />
        </mxCell>
        <mxCell id="7TcbfxzlcFphuBwjYKQD-21" value="&lt;span style=&quot;font-size: 15px&quot;&gt;type: CommentCreated&lt;/span&gt;" style="rounded=0;whiteSpace=wrap;html=1;shadow=0;fontSize=15;fillColor=#f8cecc;strokeColor=#b85450;fontStyle=0" vertex="1" parent="7TcbfxzlcFphuBwjYKQD-18">
          <mxGeometry y="25" width="200" height="35" as="geometry" />
        </mxCell>
      </root>
    </mxGraphModel>
  </diagram>
  <diagram name="22 - q" id="uY7IsHV6WGGZS2PmSJhQ">
    <mxGraphModel dx="751" dy="370" grid="1" gridSize="10" guides="1" tooltips="1" connect="1" arrows="1" fold="1" page="1" pageScale="1" pageWidth="1920" pageHeight="1200" math="0" shadow="0">
      <root>
        <mxCell id="cQ1RHhOrqqTg06IDgF2S-0" />
        <mxCell id="cQ1RHhOrqqTg06IDgF2S-1" parent="cQ1RHhOrqqTg06IDgF2S-0" />
        <mxCell id="cQ1RHhOrqqTg06IDgF2S-2" value="Query Service" style="rounded=0;whiteSpace=wrap;html=1;shadow=1;fontSize=21;align=center;fillColor=#f5f5f5;strokeColor=#666666;fontColor=#333333;fontStyle=0" vertex="1" parent="cQ1RHhOrqqTg06IDgF2S-1">
          <mxGeometry x="470" y="190" width="410" height="40" as="geometry" />
        </mxCell>
        <mxCell id="cQ1RHhOrqqTg06IDgF2S-3" value="" style="rounded=0;whiteSpace=wrap;html=1;shadow=1;fontSize=17;align=left;fillColor=#f5f5f5;strokeColor=#666666;fontColor=#333333;fontStyle=0" vertex="1" parent="cQ1RHhOrqqTg06IDgF2S-1">
          <mxGeometry x="470" y="230" width="410" height="210" as="geometry" />
        </mxCell>
        <mxCell id="cQ1RHhOrqqTg06IDgF2S-8" value="Posts" style="rounded=0;whiteSpace=wrap;html=1;shadow=0;fontSize=15;align=center;fillColor=#dae8fc;strokeColor=#6c8ebf;fontStyle=1" vertex="1" parent="cQ1RHhOrqqTg06IDgF2S-1">
          <mxGeometry x="490" y="245" width="370" height="25" as="geometry" />
        </mxCell>
        <mxCell id="cQ1RHhOrqqTg06IDgF2S-9" value="id" style="rounded=0;whiteSpace=wrap;html=1;shadow=0;fontSize=15;align=center;fillColor=#d5e8d4;strokeColor=#82b366;fontStyle=2" vertex="1" parent="cQ1RHhOrqqTg06IDgF2S-1">
          <mxGeometry x="490" y="270" width="70" height="20" as="geometry" />
        </mxCell>
        <mxCell id="cQ1RHhOrqqTg06IDgF2S-10" value="title" style="rounded=0;whiteSpace=wrap;html=1;shadow=0;fontSize=15;align=center;fillColor=#d5e8d4;strokeColor=#82b366;fontStyle=2" vertex="1" parent="cQ1RHhOrqqTg06IDgF2S-1">
          <mxGeometry x="560" y="270" width="110" height="20" as="geometry" />
        </mxCell>
        <mxCell id="cQ1RHhOrqqTg06IDgF2S-11" value="comments" style="rounded=0;whiteSpace=wrap;html=1;shadow=0;fontSize=15;align=center;fillColor=#d5e8d4;strokeColor=#82b366;fontStyle=2" vertex="1" parent="cQ1RHhOrqqTg06IDgF2S-1">
          <mxGeometry x="670" y="270" width="190" height="20" as="geometry" />
        </mxCell>
        <mxCell id="cQ1RHhOrqqTg06IDgF2S-12" value="a1jp5" style="rounded=0;whiteSpace=wrap;html=1;shadow=0;fontSize=15;align=center;" vertex="1" parent="cQ1RHhOrqqTg06IDgF2S-1">
          <mxGeometry x="490" y="290" width="70" height="30" as="geometry" />
        </mxCell>
        <mxCell id="cQ1RHhOrqqTg06IDgF2S-13" value="new post" style="rounded=0;whiteSpace=wrap;html=1;shadow=0;fontSize=15;align=center;" vertex="1" parent="cQ1RHhOrqqTg06IDgF2S-1">
          <mxGeometry x="560" y="290" width="110" height="30" as="geometry" />
        </mxCell>
        <mxCell id="cQ1RHhOrqqTg06IDgF2S-14" value="[&amp;nbsp; { id: &#39;2j56&#39;, content: &#39;a comment&#39;&amp;nbsp; ]" style="rounded=0;whiteSpace=wrap;html=1;shadow=0;fontSize=15;align=center;" vertex="1" parent="cQ1RHhOrqqTg06IDgF2S-1">
          <mxGeometry x="670" y="290" width="190" height="30" as="geometry" />
        </mxCell>
        <mxCell id="cQ1RHhOrqqTg06IDgF2S-15" style="edgeStyle=orthogonalEdgeStyle;rounded=0;orthogonalLoop=1;jettySize=auto;html=1;exitX=0;exitY=0.5;exitDx=0;exitDy=0;entryX=0.999;entryY=0.441;entryDx=0;entryDy=0;entryPerimeter=0;fontSize=15;" edge="1" parent="cQ1RHhOrqqTg06IDgF2S-1" target="cQ1RHhOrqqTg06IDgF2S-3">
          <mxGeometry relative="1" as="geometry">
            <mxPoint x="1010" y="322.5" as="sourcePoint" />
          </mxGeometry>
        </mxCell>
        <mxCell id="W7jqKIJX4lrUbeRP-UcX-0" value="" style="group;fontSize=8;" vertex="1" connectable="0" parent="cQ1RHhOrqqTg06IDgF2S-1">
          <mxGeometry x="960" y="280" width="200" height="95" as="geometry" />
        </mxCell>
        <mxCell id="W7jqKIJX4lrUbeRP-UcX-1" value="&lt;font style=&quot;font-size: 11px&quot;&gt;{ id: &#39;2j56&#39;, content: &#39;a comment&#39;, postId: &#39;a1jp5&#39; }&lt;/font&gt;" style="rounded=0;whiteSpace=wrap;html=1;shadow=0;fontSize=15;fillColor=#f8cecc;strokeColor=#b85450;" vertex="1" parent="W7jqKIJX4lrUbeRP-UcX-0">
          <mxGeometry y="60" width="200" height="35" as="geometry" />
        </mxCell>
        <mxCell id="W7jqKIJX4lrUbeRP-UcX-2" value="&lt;b&gt;Event&lt;/b&gt;" style="rounded=0;whiteSpace=wrap;html=1;shadow=0;fontSize=21;fillColor=#f8cecc;strokeColor=#b85450;" vertex="1" parent="W7jqKIJX4lrUbeRP-UcX-0">
          <mxGeometry width="200" height="25" as="geometry" />
        </mxCell>
        <mxCell id="W7jqKIJX4lrUbeRP-UcX-3" value="&lt;span style=&quot;font-size: 15px&quot;&gt;type: CommentCreated&lt;/span&gt;" style="rounded=0;whiteSpace=wrap;html=1;shadow=0;fontSize=15;fillColor=#f8cecc;strokeColor=#b85450;fontStyle=0" vertex="1" parent="W7jqKIJX4lrUbeRP-UcX-0">
          <mxGeometry y="25" width="200" height="35" as="geometry" />
        </mxCell>
      </root>
    </mxGraphModel>
  </diagram>
  <diagram name="23 - q" id="N3rIbQ2G29QNVW5u14xf">
    <mxGraphModel dx="1036" dy="510" grid="1" gridSize="10" guides="1" tooltips="1" connect="1" arrows="1" fold="1" page="1" pageScale="1" pageWidth="1920" pageHeight="1200" math="0" shadow="0">
      <root>
        <mxCell id="i6aFUawmrDhXmP9eDx17-0" />
        <mxCell id="i6aFUawmrDhXmP9eDx17-1" parent="i6aFUawmrDhXmP9eDx17-0" />
        <mxCell id="i6aFUawmrDhXmP9eDx17-2" value="Posts Service" style="rounded=0;whiteSpace=wrap;html=1;shadow=1;fontSize=21;align=center;fillColor=#f5f5f5;strokeColor=#666666;fontColor=#333333;fontStyle=0" vertex="1" parent="i6aFUawmrDhXmP9eDx17-1">
          <mxGeometry x="630" y="180" width="230" height="40" as="geometry" />
        </mxCell>
        <mxCell id="i6aFUawmrDhXmP9eDx17-4" value="" style="rounded=0;whiteSpace=wrap;html=1;shadow=1;fontSize=17;align=left;fillColor=#f5f5f5;strokeColor=#666666;fontColor=#333333;fontStyle=0" vertex="1" parent="i6aFUawmrDhXmP9eDx17-1">
          <mxGeometry x="630" y="220" width="230" height="90" as="geometry" />
        </mxCell>
        <mxCell id="i6aFUawmrDhXmP9eDx17-5" value="Posts Feature" style="whiteSpace=wrap;html=1;rounded=0;shadow=1;fontSize=21;align=center;fillColor=#ffe6cc;strokeColor=#d79b00;fontStyle=0" vertex="1" parent="i6aFUawmrDhXmP9eDx17-1">
          <mxGeometry x="650" y="235" width="190" height="55" as="geometry" />
        </mxCell>
        <mxCell id="i6aFUawmrDhXmP9eDx17-6" value="Comments Service" style="rounded=0;whiteSpace=wrap;html=1;shadow=1;fontSize=21;align=center;fillColor=#f5f5f5;strokeColor=#666666;fontColor=#333333;fontStyle=0" vertex="1" parent="i6aFUawmrDhXmP9eDx17-1">
          <mxGeometry x="630" y="330" width="230" height="40" as="geometry" />
        </mxCell>
        <mxCell id="i6aFUawmrDhXmP9eDx17-7" value="" style="rounded=0;whiteSpace=wrap;html=1;shadow=1;fontSize=17;align=left;fillColor=#f5f5f5;strokeColor=#666666;fontColor=#333333;fontStyle=0" vertex="1" parent="i6aFUawmrDhXmP9eDx17-1">
          <mxGeometry x="630" y="370" width="230" height="90" as="geometry" />
        </mxCell>
        <mxCell id="i6aFUawmrDhXmP9eDx17-8" value="Comments Feature" style="whiteSpace=wrap;html=1;rounded=0;shadow=1;fontSize=21;align=center;fillColor=#ffe6cc;strokeColor=#d79b00;fontStyle=0" vertex="1" parent="i6aFUawmrDhXmP9eDx17-1">
          <mxGeometry x="645" y="385" width="200" height="55" as="geometry" />
        </mxCell>
        <mxCell id="i6aFUawmrDhXmP9eDx17-9" value="Solution #2 - Async Communication" style="whiteSpace=wrap;html=1;rounded=0;shadow=1;fontSize=18;align=center;fillColor=#dae8fc;strokeColor=#6c8ebf;fontStyle=1" vertex="1" parent="i6aFUawmrDhXmP9eDx17-1">
          <mxGeometry x="770" y="110" width="350" height="50" as="geometry" />
        </mxCell>
        <mxCell id="i6aFUawmrDhXmP9eDx17-10" value="Query Service" style="rounded=0;whiteSpace=wrap;html=1;shadow=1;fontSize=21;align=center;fillColor=#f5f5f5;strokeColor=#666666;fontColor=#333333;fontStyle=0" vertex="1" parent="i6aFUawmrDhXmP9eDx17-1">
          <mxGeometry x="630" y="480" width="230" height="40" as="geometry" />
        </mxCell>
        <mxCell id="i6aFUawmrDhXmP9eDx17-11" value="" style="rounded=0;whiteSpace=wrap;html=1;shadow=1;fontSize=17;align=left;fillColor=#f5f5f5;strokeColor=#666666;fontColor=#333333;fontStyle=0" vertex="1" parent="i6aFUawmrDhXmP9eDx17-1">
          <mxGeometry x="630" y="520" width="230" height="90" as="geometry" />
        </mxCell>
        <mxCell id="i6aFUawmrDhXmP9eDx17-12" value="Query Feature" style="whiteSpace=wrap;html=1;rounded=0;shadow=1;fontSize=21;align=center;fillColor=#ffe6cc;strokeColor=#d79b00;fontStyle=0" vertex="1" parent="i6aFUawmrDhXmP9eDx17-1">
          <mxGeometry x="645" y="535" width="200" height="55" as="geometry" />
        </mxCell>
        <mxCell id="i6aFUawmrDhXmP9eDx17-13" value="Event Bus" style="rounded=0;whiteSpace=wrap;html=1;shadow=1;fontSize=21;align=center;fillColor=#f5f5f5;strokeColor=#666666;fontColor=#333333;fontStyle=0" vertex="1" parent="i6aFUawmrDhXmP9eDx17-1">
          <mxGeometry x="1040" y="180" width="230" height="40" as="geometry" />
        </mxCell>
        <mxCell id="i6aFUawmrDhXmP9eDx17-14" value="" style="rounded=0;whiteSpace=wrap;html=1;shadow=1;fontSize=17;align=left;fillColor=#f5f5f5;strokeColor=#666666;fontColor=#333333;" vertex="1" parent="i6aFUawmrDhXmP9eDx17-1">
          <mxGeometry x="1040" y="220" width="230" height="390" as="geometry" />
        </mxCell>
        <mxCell id="i6aFUawmrDhXmP9eDx17-15" style="edgeStyle=orthogonalEdgeStyle;rounded=0;orthogonalLoop=1;jettySize=auto;html=1;exitX=1;exitY=0.5;exitDx=0;exitDy=0;entryX=0;entryY=0.5;entryDx=0;entryDy=0;fontSize=16;" edge="1" parent="i6aFUawmrDhXmP9eDx17-1" source="i6aFUawmrDhXmP9eDx17-16">
          <mxGeometry relative="1" as="geometry">
            <mxPoint x="630" y="552.5" as="targetPoint" />
          </mxGeometry>
        </mxCell>
        <mxCell id="i6aFUawmrDhXmP9eDx17-16" value="GET /posts" style="rounded=0;whiteSpace=wrap;html=1;shadow=0;fontSize=16;align=center;fillColor=#d5e8d4;strokeColor=#82b366;fontStyle=1" vertex="1" parent="i6aFUawmrDhXmP9eDx17-1">
          <mxGeometry x="420" y="530" width="170" height="45" as="geometry" />
        </mxCell>
        <mxCell id="i6aFUawmrDhXmP9eDx17-17" value="" style="group" vertex="1" connectable="0" parent="i6aFUawmrDhXmP9eDx17-1">
          <mxGeometry x="890" y="320" width="280" height="115" as="geometry" />
        </mxCell>
      </root>
    </mxGraphModel>
  </diagram>
  <diagram id="QV6WUxvFvHmCo4O43z3P" name="24 - pros">
    <mxGraphModel dx="1001" dy="493" grid="1" gridSize="10" guides="1" tooltips="1" connect="1" arrows="1" fold="1" page="1" pageScale="1" pageWidth="1920" pageHeight="1200" math="0" shadow="0">
      <root>
        <mxCell id="RJm63MwJKGmIo74jrvCz-0" />
        <mxCell id="RJm63MwJKGmIo74jrvCz-1" parent="RJm63MwJKGmIo74jrvCz-0" />
        <mxCell id="RJm63MwJKGmIo74jrvCz-2" value="Query Service has zero dependencies on other services!" style="rounded=0;whiteSpace=wrap;html=1;fontSize=26;shadow=1;fillColor=#d5e8d4;strokeColor=#82b366;" vertex="1" parent="RJm63MwJKGmIo74jrvCz-1">
          <mxGeometry x="630" y="355" width="820" height="65" as="geometry" />
        </mxCell>
        <mxCell id="RJm63MwJKGmIo74jrvCz-3" value="Query Service will be extremely fast!" style="rounded=0;whiteSpace=wrap;html=1;fontSize=26;shadow=1;fillColor=#d5e8d4;strokeColor=#82b366;" vertex="1" parent="RJm63MwJKGmIo74jrvCz-1">
          <mxGeometry x="630" y="440" width="820" height="70" as="geometry" />
        </mxCell>
        <mxCell id="RJm63MwJKGmIo74jrvCz-4" value="Notes on Async Communication" style="text;html=1;strokeColor=none;fillColor=none;align=center;verticalAlign=middle;whiteSpace=wrap;rounded=0;fontSize=27;fontStyle=1" vertex="1" parent="RJm63MwJKGmIo74jrvCz-1">
          <mxGeometry x="710" y="320" width="660" height="20" as="geometry" />
        </mxCell>
        <mxCell id="RJm63MwJKGmIo74jrvCz-5" value="Data duplication." style="rounded=0;whiteSpace=wrap;html=1;fontSize=26;shadow=1;fillColor=#fff2cc;strokeColor=#d6b656;" vertex="1" parent="RJm63MwJKGmIo74jrvCz-1">
          <mxGeometry x="630" y="530" width="820" height="70" as="geometry" />
        </mxCell>
        <mxCell id="RJm63MwJKGmIo74jrvCz-6" value="Harder to understand" style="rounded=0;whiteSpace=wrap;html=1;fontSize=26;shadow=1;fillColor=#fff2cc;strokeColor=#d6b656;" vertex="1" parent="RJm63MwJKGmIo74jrvCz-1">
          <mxGeometry x="630" y="620" width="820" height="70" as="geometry" />
        </mxCell>
      </root>
    </mxGraphModel>
  </diagram>
  <diagram id="pNra9fudqvi9GiJRbYRf" name="24 - clar">
    <mxGraphModel dx="715" dy="352" grid="1" gridSize="10" guides="1" tooltips="1" connect="1" arrows="1" fold="1" page="1" pageScale="1" pageWidth="1920" pageHeight="1200" math="0" shadow="0">
      <root>
        <mxCell id="7fhGCC5wPx0jGxzhHSwR-0" />
        <mxCell id="7fhGCC5wPx0jGxzhHSwR-1" parent="7fhGCC5wPx0jGxzhHSwR-0" />
        <mxCell id="7fhGCC5wPx0jGxzhHSwR-4" style="edgeStyle=orthogonalEdgeStyle;rounded=0;orthogonalLoop=1;jettySize=auto;html=1;exitX=1;exitY=0.5;exitDx=0;exitDy=0;fontSize=13;" edge="1" parent="7fhGCC5wPx0jGxzhHSwR-1" source="7fhGCC5wPx0jGxzhHSwR-2" target="7fhGCC5wPx0jGxzhHSwR-3">
          <mxGeometry relative="1" as="geometry" />
        </mxCell>
        <mxCell id="7fhGCC5wPx0jGxzhHSwR-2" value="&lt;i style=&quot;font-size: 13px;&quot;&gt;Wait, so you&#39;re saying we need to create a new service every time we need to join some data?!?!?!?!?!?&lt;/i&gt;" style="rounded=0;whiteSpace=wrap;html=1;shadow=0;fontSize=13;align=center;" vertex="1" parent="7fhGCC5wPx0jGxzhHSwR-1">
          <mxGeometry x="460" y="290" width="220" height="60" as="geometry" />
        </mxCell>
        <mxCell id="7fhGCC5wPx0jGxzhHSwR-3" value="Absolutely not!&amp;nbsp; In reality, might not even have posts and comments in separate services in the first place" style="rounded=0;whiteSpace=wrap;html=1;shadow=0;fontSize=13;align=center;fillColor=#dae8fc;strokeColor=#6c8ebf;fontStyle=1" vertex="1" parent="7fhGCC5wPx0jGxzhHSwR-1">
          <mxGeometry x="710" y="290" width="420" height="60" as="geometry" />
        </mxCell>
        <mxCell id="7fhGCC5wPx0jGxzhHSwR-5" value="Question" style="text;html=1;strokeColor=none;fillColor=none;align=center;verticalAlign=middle;whiteSpace=wrap;rounded=0;shadow=0;fontSize=20;fontStyle=1" vertex="1" parent="7fhGCC5wPx0jGxzhHSwR-1">
          <mxGeometry x="550" y="260" width="40" height="20" as="geometry" />
        </mxCell>
        <mxCell id="7fhGCC5wPx0jGxzhHSwR-6" value="Answer" style="text;html=1;strokeColor=none;fillColor=none;align=center;verticalAlign=middle;whiteSpace=wrap;rounded=0;shadow=0;fontSize=20;fontStyle=1" vertex="1" parent="7fhGCC5wPx0jGxzhHSwR-1">
          <mxGeometry x="865" y="260" width="100" height="20" as="geometry" />
        </mxCell>
        <mxCell id="kiA0OJmY0Fv81m9agr0d-0" style="edgeStyle=orthogonalEdgeStyle;rounded=0;orthogonalLoop=1;jettySize=auto;html=1;exitX=1;exitY=0.5;exitDx=0;exitDy=0;fontSize=13;" edge="1" parent="7fhGCC5wPx0jGxzhHSwR-1" source="kiA0OJmY0Fv81m9agr0d-1" target="kiA0OJmY0Fv81m9agr0d-2">
          <mxGeometry relative="1" as="geometry" />
        </mxCell>
        <mxCell id="kiA0OJmY0Fv81m9agr0d-1" value="&lt;i style=&quot;font-size: 13px&quot;&gt;Who cares that each service is independent?&lt;/i&gt;" style="rounded=0;whiteSpace=wrap;html=1;shadow=0;fontSize=13;align=center;" vertex="1" parent="7fhGCC5wPx0jGxzhHSwR-1">
          <mxGeometry x="460" y="360" width="220" height="60" as="geometry" />
        </mxCell>
        <mxCell id="kiA0OJmY0Fv81m9agr0d-2" value="Independent services + the reliability that brings is &lt;i&gt;one of&lt;/i&gt; the core reasons of using microservices in the first place" style="rounded=0;whiteSpace=wrap;html=1;shadow=0;fontSize=13;align=center;fillColor=#dae8fc;strokeColor=#6c8ebf;fontStyle=1" vertex="1" parent="7fhGCC5wPx0jGxzhHSwR-1">
          <mxGeometry x="710" y="360" width="420" height="60" as="geometry" />
        </mxCell>
        <mxCell id="kiA0OJmY0Fv81m9agr0d-3" style="edgeStyle=orthogonalEdgeStyle;rounded=0;orthogonalLoop=1;jettySize=auto;html=1;exitX=1;exitY=0.5;exitDx=0;exitDy=0;fontSize=13;" edge="1" parent="7fhGCC5wPx0jGxzhHSwR-1" source="kiA0OJmY0Fv81m9agr0d-4" target="kiA0OJmY0Fv81m9agr0d-5">
          <mxGeometry relative="1" as="geometry" />
        </mxCell>
        <mxCell id="kiA0OJmY0Fv81m9agr0d-4" value="This system won&#39;t correctly in the following scenario...." style="rounded=0;whiteSpace=wrap;html=1;shadow=0;fontSize=13;align=center;fontStyle=2" vertex="1" parent="7fhGCC5wPx0jGxzhHSwR-1">
          <mxGeometry x="460" y="500" width="220" height="60" as="geometry" />
        </mxCell>
        <mxCell id="kiA0OJmY0Fv81m9agr0d-5" value="There are some very special things we need to consider with this design.&amp;nbsp; I&#39;ve got solutions for most (maybe?) of the concerns you may have" style="rounded=0;whiteSpace=wrap;html=1;shadow=0;fontSize=13;align=center;fillColor=#dae8fc;strokeColor=#6c8ebf;fontStyle=1" vertex="1" parent="7fhGCC5wPx0jGxzhHSwR-1">
          <mxGeometry x="710" y="500" width="420" height="60" as="geometry" />
        </mxCell>
        <mxCell id="kiA0OJmY0Fv81m9agr0d-7" style="edgeStyle=orthogonalEdgeStyle;rounded=0;orthogonalLoop=1;jettySize=auto;html=1;exitX=1;exitY=0.5;exitDx=0;exitDy=0;fontSize=13;" edge="1" parent="7fhGCC5wPx0jGxzhHSwR-1" source="kiA0OJmY0Fv81m9agr0d-8" target="kiA0OJmY0Fv81m9agr0d-9">
          <mxGeometry relative="1" as="geometry" />
        </mxCell>
        <mxCell id="kiA0OJmY0Fv81m9agr0d-8" value="&lt;i style=&quot;font-size: 13px&quot;&gt;This is so over the top complicated for little benefit&lt;/i&gt;" style="rounded=0;whiteSpace=wrap;html=1;shadow=0;fontSize=13;align=center;" vertex="1" parent="7fhGCC5wPx0jGxzhHSwR-1">
          <mxGeometry x="460" y="430" width="220" height="60" as="geometry" />
        </mxCell>
        <mxCell id="kiA0OJmY0Fv81m9agr0d-9" value="Seems that way now!&amp;nbsp; Adding in some features starts to get &lt;i&gt;really easy&lt;/i&gt;&amp;nbsp;when we use this architecture" style="rounded=0;whiteSpace=wrap;html=1;shadow=0;fontSize=13;align=center;fillColor=#dae8fc;strokeColor=#6c8ebf;fontStyle=1" vertex="1" parent="7fhGCC5wPx0jGxzhHSwR-1">
          <mxGeometry x="710" y="430" width="420" height="60" as="geometry" />
        </mxCell>
      </root>
    </mxGraphModel>
  </diagram>
</mxfile>
